<?xml version="1.0" encoding="UTF-8" standalone="no"?>
<!-- Created with Inkscape (http://www.inkscape.org/) -->

<svg
   width="37.79525"
   height="36.874146"
   viewBox="0 0 9.999993 9.7562843"
   version="1.1"
   id="svg1"
   xml:space="preserve"
   xmlns="http://www.w3.org/2000/svg"
   xmlns:svg="http://www.w3.org/2000/svg"><defs
     id="defs1"><linearGradient
       id="swatch37"><stop
         style="stop-color:#0a100d;stop-opacity:1;"
         offset="0"
         id="stop37" /></linearGradient><linearGradient
       id="swatch36"><stop
         style="stop-color:#c59a23;stop-opacity:1;"
         offset="0"
         id="stop36" /></linearGradient><linearGradient
       id="swatch35"><stop
         style="stop-color:#656839;stop-opacity:1;"
         offset="0"
         id="stop35" /></linearGradient><linearGradient
       id="swatch34"><stop
         style="stop-color:#ccc5b9;stop-opacity:1;"
         offset="0"
         id="stop34" /></linearGradient><linearGradient
       id="swatch33"><stop
         style="stop-color:#685f74;stop-opacity:1;"
         offset="0"
         id="stop33" /></linearGradient><linearGradient
       id="swatch32"><stop
         style="stop-color:#cc2936;stop-opacity:1;"
         offset="0"
         id="stop32" /></linearGradient><linearGradient
       id="swatch30"><stop
         style="stop-color:#f6511d;stop-opacity:1;"
         offset="0"
         id="stop31" /></linearGradient><linearGradient
       id="swatch28"
       gradientTransform="matrix(0.26458333,0,0,0.1024601,-92.997967,172.05958)"><stop
         style="stop-color:#09bc8a;stop-opacity:1;"
         offset="0"
         id="stop28" /></linearGradient><linearGradient
       id="swatch27"><stop
         style="stop-color:#dc76e3;stop-opacity:1;"
         offset="0"
         id="stop27" /></linearGradient><linearGradient
       id="swatch26"><stop
         style="stop-color:#0081a7;stop-opacity:1;"
         offset="0"
         id="stop26" /></linearGradient></defs><g
     id="layer2"
     style="display:inline"
     transform="translate(-19.127744,-324.42752)"><g
       id="layer9"><path
         style="display:inline;fill:#000000;fill-opacity:0.15;stroke-width:1"
         d="m 19.439062,334.1571 c -0.0563,-0.0343 -0.0662,-0.0544 -0.19571,-0.39558 -0.14687,-0.38698 -0.1474,-0.39388 -0.0377,-0.49668 0.65476,-0.6138 1.01424,-1.00743 1.65304,-1.81009 1.01715,-1.27804 2.46842,-3.40296 3.61739,-5.29653 0.0775,-0.12765 0.1443,-0.23617 0.14853,-0.24115 0.006,-0.007 0.31138,0.15408 0.42586,0.22513 l 0.0269,0.0167 -0.0245,0.048 c -0.0365,0.0715 -0.469,0.82768 -0.68362,1.19517 -1.6676,2.8554 -3.26724,5.15495 -4.5552,6.5483 -0.21747,0.23526 -0.27563,0.26734 -0.37493,0.20679 z m 6.00781,-4.39375 c 0.0141,-0.0353 0.0278,-0.0697 0.0305,-0.0764 0.003,-0.007 0.0597,-0.0296 0.12669,-0.0507 1.68491,-0.53304 2.8375,-1.9181 3.12985,-3.76113 0.0237,-0.14923 0.0299,-0.17068 0.0508,-0.17475 0.0477,-0.009 0.33117,-0.0302 0.33656,-0.0248 0.0517,0.0517 -0.21788,1.12241 -0.39575,1.57178 -0.52454,1.32514 -1.89708,2.41639 -3.23528,2.57222 l -0.0689,0.008 z m 0.0607,-0.15224 c 0.002,-0.006 0.0575,-0.14455 0.12283,-0.30817 l 0.11885,-0.29748 0.11324,-0.0559 c 0.88018,-0.4349 1.26654,-1.43617 0.8038,-2.0831 -0.23686,-0.33114 -0.66406,-0.6117 -1.08929,-0.71536 -0.0491,-0.012 -0.0906,-0.0224 -0.0922,-0.0231 -0.002,-7.5e-4 0.10953,-0.20177 0.24698,-0.44673 0.17501,-0.3119 0.2499,-0.45638 0.2499,-0.48209 0,-0.0535 0.004,-0.0538 0.11072,-0.008 0.55504,0.2356 1.53397,0.43765 2.3856,0.4924 0.26214,0.0169 0.24326,0.0109 0.23407,0.0731 -0.26169,1.7699 -1.20265,3.03677 -2.74756,3.6992 -0.20685,0.0887 -0.46468,0.17655 -0.45694,0.1557 z m -0.33525,-3.44966 c -0.81326,-0.43171 -0.7893,-0.37785 -0.44357,-0.99707 0.36744,-0.65811 0.31774,-0.63581 0.80709,-0.36204 0.51725,0.28938 0.50804,0.23681 0.15233,0.86999 -0.29782,0.53011 -0.34836,0.57803 -0.51585,0.48912 z m 0.39342,-1.39136 c -0.12075,-0.0683 -0.22173,-0.12635 -0.2244,-0.12902 -0.0122,-0.0121 0.0987,-0.18322 0.13114,-0.20238 0.0982,-0.058 0.41636,0.1233 0.41636,0.23724 0,0.0355 -0.0664,0.1815 -0.0957,0.21056 -0.004,0.004 -0.10664,-0.0481 -0.22739,-0.1164 z"
         id="path43-7" /></g></g></svg>
