<?xml version="1.0" encoding="UTF-8" standalone="no"?>
<!-- Created with Inkscape (http://www.inkscape.org/) -->

<svg
   width="29.754585"
   height="30.320557"
   viewBox="0 0 7.8725672 8.0223139"
   version="1.1"
   id="svg1"
   xml:space="preserve"
   xmlns="http://www.w3.org/2000/svg"
   xmlns:svg="http://www.w3.org/2000/svg"><defs
     id="defs1"><linearGradient
       id="swatch37"><stop
         style="stop-color:#0a100d;stop-opacity:1;"
         offset="0"
         id="stop37" /></linearGradient><linearGradient
       id="swatch36"><stop
         style="stop-color:#c59a23;stop-opacity:1;"
         offset="0"
         id="stop36" /></linearGradient><linearGradient
       id="swatch35"><stop
         style="stop-color:#656839;stop-opacity:1;"
         offset="0"
         id="stop35" /></linearGradient><linearGradient
       id="swatch34"><stop
         style="stop-color:#ccc5b9;stop-opacity:1;"
         offset="0"
         id="stop34" /></linearGradient><linearGradient
       id="swatch33"><stop
         style="stop-color:#685f74;stop-opacity:1;"
         offset="0"
         id="stop33" /></linearGradient><linearGradient
       id="swatch32"><stop
         style="stop-color:#cc2936;stop-opacity:1;"
         offset="0"
         id="stop32" /></linearGradient><linearGradient
       id="swatch30"><stop
         style="stop-color:#f6511d;stop-opacity:1;"
         offset="0"
         id="stop31" /></linearGradient><linearGradient
       id="swatch28"
       gradientTransform="matrix(0.26458333,0,0,0.1024601,-92.997967,172.05958)"><stop
         style="stop-color:#09bc8a;stop-opacity:1;"
         offset="0"
         id="stop28" /></linearGradient><linearGradient
       id="swatch27"><stop
         style="stop-color:#dc76e3;stop-opacity:1;"
         offset="0"
         id="stop27" /></linearGradient><linearGradient
       id="swatch26"><stop
         style="stop-color:#0081a7;stop-opacity:1;"
         offset="0"
         id="stop26" /></linearGradient></defs><g
     id="layer2"
     style="display:inline"
     transform="translate(29.568911,-326.13507)"><g
       id="layer9"><path
         style="display:inline;fill:#000000;fill-opacity:0.15;stroke-width:0.999997"
         d="m -24.738714,334.13286 c -0.17307,-0.0614 -0.222006,-0.14665 -0.361303,-0.62909 -0.09106,-0.31536 -0.295592,-0.97275 -0.334482,-1.07504 -0.01197,-0.0315 -1.096917,-0.75446 -1.180035,-0.78633 -0.01252,-0.005 -0.0522,0.0688 -0.112192,0.20816 -0.37601,0.8735 -0.274273,0.75944 -1.497465,1.67873 -0.865943,0.65081 -0.999761,0.69726 -1.22435,0.42499 -0.227446,-0.27575 -0.167795,-0.39941 0.486069,-1.00767 0.272493,-0.25348 0.605912,-0.56938 0.740942,-0.70199 l 0.245506,-0.24113 0.218794,-0.71288 c 0.159058,-0.51824 0.221511,-0.74445 0.228746,-0.82852 0.01244,-0.14492 0.05519,-0.27227 0.197656,-0.58941 0.160018,-0.35614 0.186667,-0.42044 0.369389,-0.8912 0.387779,-0.99907 0.564904,-1.10955 1.651437,-1.03004 1.296052,0.0948 2.243296,0.14528 2.270243,0.12088 0.05196,-0.047 0.141234,-0.0719 0.257693,-0.0719 0.09248,0 0.13466,-0.009 0.207198,-0.0417 0.475456,-0.21767 0.997486,0.17983 0.854481,0.65064 -0.10073,0.33163 -0.548584,0.50207 -0.868581,0.33056 -0.04243,-0.0228 -0.08909,-0.0309 -0.178896,-0.0315 -0.127512,-7.3e-4 -0.220762,-0.025 -0.271037,-0.0705 -0.02834,-0.0257 -1.388287,0.0387 -1.774106,0.084 l -0.09055,0.0106 0.103824,0.14101 c 0.05708,0.0775 0.1055,0.14278 0.107547,0.14495 0.01834,0.0194 0.252867,-0.0672 0.339253,-0.12526 0.584538,-0.39331 1.267979,0.25921 0.813566,0.77676 -0.131566,0.14984 -0.479966,0.24757 -0.650896,0.18259 -0.02858,-0.0109 -0.06148,-0.0105 -0.104579,7.8e-4 -0.03456,0.009 -0.123772,0.0267 -0.198231,0.0386 -0.07447,0.0119 -0.188257,0.0366 -0.25289,0.0548 -0.196279,0.0553 -0.297639,0.0295 -0.449981,-0.11457 -0.05078,-0.048 -0.08922,-0.0734 -0.09789,-0.0646 -0.0163,0.0165 -0.329514,0.81984 -0.329514,0.84522 0,0.009 0.188312,0.17143 0.418474,0.36064 0.659446,0.54213 0.680599,0.56705 0.757207,0.89223 0.05786,0.24575 0.250387,1.38745 0.275312,1.6329 0.03078,0.30314 -0.274973,0.53742 -0.566353,0.43396 z m -0.782801,-6.24469 c -0.508961,-0.0957 -0.832288,-0.68701 -0.644322,-1.17843 0.233075,-0.60936 0.989582,-0.76984 1.451835,-0.30797 0.619918,0.61938 0.0603,1.64949 -0.807513,1.4864 z"
         id="path42-8" /></g></g></svg>
