<?xml version="1.0" encoding="UTF-8" standalone="no"?>
<!-- Created with Inkscape (http://www.inkscape.org/) -->

<svg
   width="24.986877"
   height="25.042542"
   viewBox="0 0 6.6111112 6.6258391"
   version="1.1"
   id="svg1"
   xml:space="preserve"
   inkscape:version="1.4-rc1 (61ec3f2, 2024-09-26)"
   sodipodi:docname="drawing.svg"
   inkscape:export-batch-path="..\DSAHTML"
   inkscape:export-batch-name=""
   inkscape:export-filename="..\DSAHTML\seite1.svg"
   inkscape:export-xdpi="96"
   inkscape:export-ydpi="96"
   xmlns:inkscape="http://www.inkscape.org/namespaces/inkscape"
   xmlns:sodipodi="http://sodipodi.sourceforge.net/DTD/sodipodi-0.dtd"
   xmlns="http://www.w3.org/2000/svg"
   xmlns:svg="http://www.w3.org/2000/svg"><sodipodi:namedview
     id="namedview1"
     pagecolor="#ffffff"
     bordercolor="#000000"
     borderopacity="0.25"
     inkscape:showpageshadow="2"
     inkscape:pageopacity="0.0"
     inkscape:pagecheckerboard="0"
     inkscape:deskcolor="#d1d1d1"
     inkscape:document-units="px"
     inkscape:zoom="0.5555628"
     inkscape:cx="1308.5829"
     inkscape:cy="556.19275"
     inkscape:window-width="1920"
     inkscape:window-height="1009"
     inkscape:window-x="-8"
     inkscape:window-y="-8"
     inkscape:window-maximized="1"
     inkscape:current-layer="layer10"
     showguides="false"><inkscape:page
       x="0"
       y="0"
       width="6.6111112"
       height="6.6258392"
       id="page2"
       margin="0"
       bleed="0" /></sodipodi:namedview><defs
     id="defs1"><linearGradient
       id="swatch37"
       inkscape:swatch="solid"
       inkscape:label="Totenangst"><stop
         style="stop-color:#0a100d;stop-opacity:1;"
         offset="0"
         id="stop37" /></linearGradient><linearGradient
       id="swatch36"
       inkscape:swatch="solid"
       inkscape:label="Goldgier"><stop
         style="stop-color:#c59a23;stop-opacity:1;"
         offset="0"
         id="stop36" /></linearGradient><linearGradient
       id="swatch35"
       inkscape:swatch="solid"
       inkscape:label="Raumangst"><stop
         style="stop-color:#656839;stop-opacity:1;"
         offset="0"
         id="stop35" /></linearGradient><linearGradient
       id="swatch34"
       inkscape:swatch="solid"
       inkscape:label="Höhenangst"><stop
         style="stop-color:#ccc5b9;stop-opacity:1;"
         offset="0"
         id="stop34" /></linearGradient><linearGradient
       id="swatch33"
       inkscape:swatch="solid"
       inkscape:label="Aberglaube"><stop
         style="stop-color:#685f74;stop-opacity:1;"
         offset="0"
         id="stop33" /></linearGradient><linearGradient
       id="swatch32"
       inkscape:swatch="solid"
       inkscape:label="Körperkraft"><stop
         style="stop-color:#cc2936;stop-opacity:1;"
         offset="0"
         id="stop32" /></linearGradient><linearGradient
       id="swatch30"
       inkscape:swatch="solid"
       inkscape:label="Geschick"><stop
         style="stop-color:#f6511d;stop-opacity:1;"
         offset="0"
         id="stop31" /></linearGradient><linearGradient
       id="swatch28"
       inkscape:swatch="solid"
       inkscape:label="Charisma"
       gradientTransform="matrix(0.26458333,0,0,0.1024601,-92.997967,172.05958)"><stop
         style="stop-color:#09bc8a;stop-opacity:1;"
         offset="0"
         id="stop28" /></linearGradient><linearGradient
       id="swatch27"
       inkscape:swatch="solid"
       inkscape:label="Klugheit"><stop
         style="stop-color:#dc76e3;stop-opacity:1;"
         offset="0"
         id="stop27" /></linearGradient><linearGradient
       id="swatch26"
       inkscape:swatch="solid"
       inkscape:label="Mut"><stop
         style="stop-color:#0081a7;stop-opacity:1;"
         offset="0"
         id="stop26" /></linearGradient></defs><g
     inkscape:groupmode="layer"
     id="layer2"
     inkscape:label="seite1"
     style="display:inline"
     transform="translate(81.549563,-141.79613)"><g
       inkscape:groupmode="layer"
       id="layer4"
       inkscape:label="Stufe"><path
         id="path9"
         style="display:inline;stroke-linecap:round;stroke-miterlimit:10"
         d="m -77.928095,141.79618 c -0.902936,0.44372 -0.569536,1.58159 -0.120922,2.26239 1.637922,0.44334 1.566829,-1.47381 1.566829,-1.47381 2.145485,1.07241 -0.412433,2.53048 -1.132231,2.62878 1.408947,0.19565 2.335511,1.47759 2.423108,2.87114 -1.267412,-0.0305 -2.430945,-0.72815 -2.949174,-1.89652 -0.919275,3.42735 -3.05356,0.68264 -3.05356,0.68264 0.520716,0.016 2.065614,-0.26994 1.776119,-1.59835 -0.591918,-0.59318 -1.342561,-0.51245 -2.09703,-0.42943 -0.0187,-0.0251 -0.03002,1.27486 -0.03462,1.30018 l 0.261483,0.79892 0.436666,0.93793 c 0.31062,0.66678 1.628827,0.45727 2.241207,0.048 l 0.691947,-0.46198 c 0.91211,0.91151 1.775798,1.03705 2.970878,0.91829 0.06692,-0.91238 -0.236352,-1.39633 -1.108459,-2.77348 0.80356,-0.71939 1.010139,-1.67013 0.67231,-2.70474 -0.13724,-0.35729 -0.524314,-0.64857 -0.887284,-0.83819 0,0 0.289645,-0.27182 -1.657264,-0.27182 z m 0.991154,0.27182 c 0.317522,0.97141 -0.228023,2.44821 -1.204577,1.1684 -0.368099,-1.02814 0.439309,-1.1684 1.204577,-1.1684 z m -2.631363,2.13165 c -0.0046,-7e-5 -0.009,1.5e-4 -0.01292,5.2e-4 h -5.16e-4 l -5.17e-4,5.1e-4 h -5.17e-4 -5.17e-4 -5.16e-4 v 5.2e-4 h -5.17e-4 v 5.2e-4 h -5.17e-4 v 5.1e-4 5.2e-4 h 5.17e-4 v 5.2e-4 l 5.17e-4,5.1e-4 5.16e-4,5.2e-4 c 0.0023,0.003 0.0078,0.007 0.01705,0.0124 0.36282,0.20849 0.647698,0.41731 0.854728,0.6258 0.33521,0.38722 0.636703,0.74771 0.670243,0.80151 0.0335,0.0538 0.06098,-0.007 0.06098,-0.13488 0.249501,-0.44983 -1.300628,-1.30515 -1.588016,-1.30948 z m -1.040764,1.13688 c 0.360902,-0.0129 0.730188,0.22251 0.730188,0.4098 -0.25406,0.75849 -0.735226,0.77583 -1.409216,0.67076 -0.03439,-0.80647 0.318127,-1.06766 0.679028,-1.08056 z" /></g></g></svg>
