<?xml version="1.0" encoding="UTF-8" standalone="no"?>
<!-- Created with Inkscape (http://www.inkscape.org/) -->

<svg
   width="25.042252"
   height="25.042542"
   viewBox="0 0 6.6257622 6.6258391"
   version="1.1"
   id="svg1"
   xml:space="preserve"
   xmlns="http://www.w3.org/2000/svg"
   xmlns:svg="http://www.w3.org/2000/svg"><defs
     id="defs1"><linearGradient
       id="swatch37"><stop
         style="stop-color:#0a100d;stop-opacity:1;"
         offset="0"
         id="stop37" /></linearGradient><linearGradient
       id="swatch36"><stop
         style="stop-color:#c59a23;stop-opacity:1;"
         offset="0"
         id="stop36" /></linearGradient><linearGradient
       id="swatch35"><stop
         style="stop-color:#656839;stop-opacity:1;"
         offset="0"
         id="stop35" /></linearGradient><linearGradient
       id="swatch34"><stop
         style="stop-color:#ccc5b9;stop-opacity:1;"
         offset="0"
         id="stop34" /></linearGradient><linearGradient
       id="swatch33"><stop
         style="stop-color:#685f74;stop-opacity:1;"
         offset="0"
         id="stop33" /></linearGradient><linearGradient
       id="swatch32"><stop
         style="stop-color:#cc2936;stop-opacity:1;"
         offset="0"
         id="stop32" /></linearGradient><linearGradient
       id="swatch30"><stop
         style="stop-color:#f6511d;stop-opacity:1;"
         offset="0"
         id="stop31" /></linearGradient><linearGradient
       id="swatch28"
       gradientTransform="matrix(0.26458333,0,0,0.1024601,-92.997967,172.05958)"><stop
         style="stop-color:#09bc8a;stop-opacity:1;"
         offset="0"
         id="stop28" /></linearGradient><linearGradient
       id="swatch27"><stop
         style="stop-color:#dc76e3;stop-opacity:1;"
         offset="0"
         id="stop27" /></linearGradient><linearGradient
       id="swatch26"><stop
         style="stop-color:#0081a7;stop-opacity:1;"
         offset="0"
         id="stop26" /></linearGradient></defs><g
     id="layer2"
     style="display:inline"
     transform="translate(48.814796,-147.85773)"><g
       id="layer4"><path
         id="path9"
         style="display:inline;stroke-linecap:round;stroke-miterlimit:10"
         d="m -45.178651,147.85777 c -0.902936,0.44372 -0.569536,1.58159 -0.120922,2.26239 1.637922,0.44334 1.566829,-1.47381 1.566829,-1.47381 1.952011,0.58128 0.748411,2.97696 -1.132231,2.62878 1.408947,0.19565 2.335511,1.47759 2.423108,2.87114 -1.267412,-0.0305 -2.430945,-0.72815 -2.949174,-1.89652 -0.919275,3.42735 -3.05356,0.68264 -3.05356,0.68264 0.520716,0.016 2.065614,-0.26994 1.776119,-1.59835 -0.591918,-0.59318 -1.321514,-0.62821 -1.854987,-0.20843 -0.505834,0.61398 -0.246843,1.17043 -0.01518,1.8781 0.646445,1.97457 2.403941,1.26311 3.36982,0.52395 0.91211,0.91151 1.775798,1.03705 2.970878,0.91829 0.06692,-0.91238 -0.236352,-1.39633 -1.108459,-2.77348 0.775533,-0.6943 2.150236,-3.75582 -1.872238,-3.81475 z m 0.991154,0.27182 c 0.317522,0.97141 -0.228023,2.44821 -1.204577,1.1684 -0.368099,-1.02814 0.439309,-1.1684 1.204577,-1.1684 z m -2.631363,2.13165 c -0.0046,-7e-5 -0.009,1.5e-4 -0.01292,5.2e-4 h -5.16e-4 l -5.17e-4,5.1e-4 h -5.17e-4 -5.17e-4 -5.16e-4 v 5.2e-4 h -5.17e-4 v 5.2e-4 h -5.17e-4 v 5.1e-4 5.2e-4 h 5.17e-4 v 5.2e-4 l 5.17e-4,5.1e-4 5.16e-4,5.2e-4 c 0.0023,0.003 0.0078,0.007 0.01705,0.0124 0.642839,0.32616 1.086101,0.87441 1.524971,1.42731 0.26822,-0.67051 -0.912753,-1.25018 -1.527036,-1.44436 z m -0.163246,1.34673 c -0.25406,0.75849 -0.882556,0.97578 -1.556546,0.87071 -0.06903,-1.61889 1.556546,-1.23791 1.556546,-0.87071 z" /></g></g></svg>
