<?xml version="1.0" encoding="UTF-8" standalone="no"?>
<!-- Created with Inkscape (http://www.inkscape.org/) -->

<svg
   width="31.483717"
   height="34.059326"
   viewBox="0 0 8.3300666 9.01153"
   version="1.1"
   id="svg1"
   xml:space="preserve"
   xmlns="http://www.w3.org/2000/svg"
   xmlns:svg="http://www.w3.org/2000/svg"><defs
     id="defs1"><linearGradient
       id="swatch37"><stop
         style="stop-color:#0a100d;stop-opacity:1;"
         offset="0"
         id="stop37" /></linearGradient><linearGradient
       id="swatch36"><stop
         style="stop-color:#c59a23;stop-opacity:1;"
         offset="0"
         id="stop36" /></linearGradient><linearGradient
       id="swatch35"><stop
         style="stop-color:#656839;stop-opacity:1;"
         offset="0"
         id="stop35" /></linearGradient><linearGradient
       id="swatch34"><stop
         style="stop-color:#ccc5b9;stop-opacity:1;"
         offset="0"
         id="stop34" /></linearGradient><linearGradient
       id="swatch33"><stop
         style="stop-color:#685f74;stop-opacity:1;"
         offset="0"
         id="stop33" /></linearGradient><linearGradient
       id="swatch32"><stop
         style="stop-color:#cc2936;stop-opacity:1;"
         offset="0"
         id="stop32" /></linearGradient><linearGradient
       id="swatch30"><stop
         style="stop-color:#f6511d;stop-opacity:1;"
         offset="0"
         id="stop31" /></linearGradient><linearGradient
       id="swatch28"
       gradientTransform="matrix(0.26458333,0,0,0.1024601,-92.997967,172.05958)"><stop
         style="stop-color:#09bc8a;stop-opacity:1;"
         offset="0"
         id="stop28" /></linearGradient><linearGradient
       id="swatch27"><stop
         style="stop-color:#dc76e3;stop-opacity:1;"
         offset="0"
         id="stop27" /></linearGradient><linearGradient
       id="swatch26"><stop
         style="stop-color:#0081a7;stop-opacity:1;"
         offset="0"
         id="stop26" /></linearGradient></defs><g
     id="layer2"
     style="display:inline"
     transform="translate(-36.074399,-324.79989)"><g
       id="layer9"><path
         style="display:inline;fill:#000000;fill-opacity:0.15;stroke-width:0.999998"
         d="m 43.534064,333.78652 c -0.19904,-0.0443 -0.20263,-0.0486 -0.21266,-0.25856 -0.0104,-0.21818 -0.0102,-0.21767 -0.18649,-0.35846 -0.28371,-0.22656 -0.61757,-0.59034 -0.81881,-0.89221 -0.18129,-0.27194 -0.35494,-0.34686 -0.5648,-0.24367 -0.0909,0.0447 -0.0787,0.0487 -0.1444,-0.0472 -0.0904,-0.13195 -0.0924,-0.11344 0.0738,-0.69475 0.17542,-0.61366 0.17562,-0.61407 0.31918,-0.65837 0.0375,-0.0116 0.0387,-0.009 0.23508,0.41516 0.0311,0.0674 0.0944,0.13985 0.28775,0.32967 0.66373,0.65168 1.187131,1.25261 1.483501,1.70323 0.143,0.21743 0.18684,0.26763 0.34892,0.39962 0.22566,0.18375 -0.37075,0.40568 -0.821051,0.30551 z m -2.21713,-2.25497 c -0.0929,-0.0883 -0.17202,-0.16259 -0.17574,-0.16507 -0.003,-0.002 0.0159,-0.0279 0.0437,-0.0566 0.0646,-0.0666 0.0889,-0.14994 0.0651,-0.22236 -0.0191,-0.0577 0.007,-0.0332 -1.72716,-1.62548 -0.22042,-0.20238 -0.65451,-0.60107 -0.96466,-0.88599 -0.31014,-0.28492 -0.72319,-0.66342 -0.91788,-0.84111 -0.77678,-0.70895 -1.09817,-1.2093 -1.21794,-1.89611 -0.0438,-0.2515 -0.0134,-0.83321 0.0468,-0.89339 0.005,-0.005 0.12705,0.0467 0.27166,0.11442 0.43874,0.20548 0.77894,0.36694 0.81756,0.38801 0.0273,0.0149 0.0575,0.0757 0.11898,0.23974 0.21828,0.58229 0.58901,1.19087 1.06612,1.7501 0.0848,0.0994 0.81795,0.86419 1.62917,1.69949 l 1.47496,1.51874 -0.0318,0.0432 c -0.0177,0.024 -0.0924,0.25456 -0.16801,0.51808 -0.0749,0.26118 -0.14196,0.47486 -0.14899,0.47486 -0.007,0 -0.0888,-0.0722 -0.18178,-0.16055 z m -0.33404,-0.31467 c -0.74985,-0.71664 -2.37873,-2.22341 -3.21785,-2.97662 -1.36312,-1.22357 -1.94549,-2.46995 -1.58714,-3.39676 l 0.0168,-0.0436 0.0984,0.0493 c 0.0541,0.0271 0.10066,0.0514 0.10346,0.0538 0.003,0.002 -0.009,0.0706 -0.0266,0.15119 -0.14219,0.65837 0.0598,1.40412 0.55196,2.03826 0.17423,0.22448 0.33827,0.38483 1.2355,1.2077 1.61642,1.48248 1.90191,1.74462 2.11161,1.9389 0.11235,0.10407 0.36489,0.33609 0.56121,0.51559 0.40818,0.3732 0.41678,0.38741 0.30593,0.50551 l -0.051,0.0543 z"
         id="path40-8" /></g></g></svg>
