<?xml version="1.0" encoding="UTF-8" standalone="no"?>
<!-- Created with Inkscape (http://www.inkscape.org/) -->

<svg
   width="37.795288"
   height="37.638916"
   viewBox="0 0 10.000003 9.9586298"
   version="1.1"
   id="svg1"
   xml:space="preserve"
   xmlns="http://www.w3.org/2000/svg"
   xmlns:svg="http://www.w3.org/2000/svg"><defs
     id="defs1"><linearGradient
       id="swatch37"><stop
         style="stop-color:#0a100d;stop-opacity:1;"
         offset="0"
         id="stop37" /></linearGradient><linearGradient
       id="swatch36"><stop
         style="stop-color:#c59a23;stop-opacity:1;"
         offset="0"
         id="stop36" /></linearGradient><linearGradient
       id="swatch35"><stop
         style="stop-color:#656839;stop-opacity:1;"
         offset="0"
         id="stop35" /></linearGradient><linearGradient
       id="swatch34"><stop
         style="stop-color:#ccc5b9;stop-opacity:1;"
         offset="0"
         id="stop34" /></linearGradient><linearGradient
       id="swatch33"><stop
         style="stop-color:#685f74;stop-opacity:1;"
         offset="0"
         id="stop33" /></linearGradient><linearGradient
       id="swatch32"><stop
         style="stop-color:#cc2936;stop-opacity:1;"
         offset="0"
         id="stop32" /></linearGradient><linearGradient
       id="swatch30"><stop
         style="stop-color:#f6511d;stop-opacity:1;"
         offset="0"
         id="stop31" /></linearGradient><linearGradient
       id="swatch28"
       gradientTransform="matrix(0.26458333,0,0,0.1024601,-92.997967,172.05958)"><stop
         style="stop-color:#09bc8a;stop-opacity:1;"
         offset="0"
         id="stop28" /></linearGradient><linearGradient
       id="swatch27"><stop
         style="stop-color:#dc76e3;stop-opacity:1;"
         offset="0"
         id="stop27" /></linearGradient><linearGradient
       id="swatch26"><stop
         style="stop-color:#0081a7;stop-opacity:1;"
         offset="0"
         id="stop26" /></linearGradient></defs><g
     id="layer2"
     style="display:inline"
     transform="translate(-51.351098,-324.32635)"><g
       id="layer9"><path
         style="display:inline;fill:#000000;fill-opacity:0.15;stroke-width:1"
         d="m 60.342885,334.18266 c -0.15306,-0.12939 -0.2203,-0.2635 -0.2203,-0.43942 0,-0.10399 -0.12826,-0.31791 -0.51305,-0.85568 -0.28218,-0.39436 -0.63036,-0.88425 -0.77373,-1.08864 l -0.26067,-0.37162 0.36704,-0.25866 c 0.20188,-0.14226 0.3728,-0.25131 0.37983,-0.24232 0.007,0.009 0.35509,0.49726 0.77346,1.08505 0.63726,0.8953 0.79003,1.08258 0.94153,1.15423 0.56499,0.26721 0.31466,1.11998 -0.32859,1.11938 -0.18724,-1.7e-4 -0.27312,-0.0242 -0.36552,-0.10232 z m -1.95714,-3.0236 c -0.0379,-0.044 -0.67918,-0.93948 -1.42496,-1.99 -0.74579,-1.05051 -1.40451,-1.9745 -1.46384,-2.05331 l -0.10786,-0.14329 0.36838,-0.2596 c 0.20261,-0.14279 0.37569,-0.25226 0.38463,-0.24327 0.0498,0.0501 2.99332,4.20563 3.00653,4.24449 0.0139,0.0409 -0.18949,0.1994 -0.57622,0.44901 -0.11046,0.0713 -0.1219,0.071 -0.18666,-0.004 z m -5.22854,-1.86493 c -0.0635,-0.0688 -0.49705,-0.6609 -0.96352,-1.31581 -0.92307,-1.29596 -0.95154,-1.35768 -0.72307,-1.56747 0.10996,-0.10097 0.80997,-0.60943 0.95046,-0.69037 0.0554,-0.0319 2.07142,2.79707 2.08027,2.91918 0.0209,0.28841 -1.15404,0.8605 -1.34414,0.65447 z m 0.56324,-2.19212 c -0.50646,-0.72417 -0.93172,-1.34503 -0.94501,-1.37968 -0.0193,-0.0504 0.11322,-0.0402 0.66163,0.0506 l 0.6858,0.11363 0.40451,0.55909 0.4045,0.55908 -0.11775,0.70697 c -0.14434,0.86665 -0.008,0.94263 -1.09368,-0.60972 z m 1.34601,-0.28783 c -0.1889,-0.15599 -0.73158,-1.00372 -0.68753,-1.074 0.057,-0.0909 0.8793,-0.68677 0.94776,-0.68677 0.0752,0 0.80543,1.04137 0.77886,1.11063 -0.0183,0.0476 -0.70041,0.54813 -0.92186,0.67647 -0.0276,0.016 -0.0803,0.004 -0.11723,-0.0263 z m 0.88601,-1.31737 c -0.14737,-0.20635 -0.28182,-0.39791 -0.29878,-0.42569 -0.0205,-0.0335 0.18655,-0.10816 0.61598,-0.22206 0.35574,-0.0944 0.68499,-0.18209 0.73167,-0.19494 0.0576,-0.0159 -0.0486,0.1761 -0.33051,0.59725 -0.49152,0.73439 -0.39316,0.70078 -0.71836,0.24544 z m -1.67772,-0.15917 c -0.0157,-0.0688 -0.0785,-0.32703 -0.13947,-0.57387 -0.13817,-0.55908 -0.16753,-0.54821 0.43172,-0.1598 l 0.5046,0.32705 -0.36292,0.26584 c -0.42221,0.30927 -0.39732,0.3012 -0.43393,0.14078 z"
         id="path39-6" /></g></g></svg>
