<?xml version="1.0" encoding="UTF-8" standalone="no"?>
<!-- Created with Inkscape (http://www.inkscape.org/) -->

<svg
   width="30.593925"
   height="27.558105"
   viewBox="0 0 8.0946426 7.2914154"
   version="1.1"
   id="svg1"
   xml:space="preserve"
   xmlns="http://www.w3.org/2000/svg"
   xmlns:svg="http://www.w3.org/2000/svg"><defs
     id="defs1"><linearGradient
       id="swatch37"><stop
         style="stop-color:#0a100d;stop-opacity:1;"
         offset="0"
         id="stop37" /></linearGradient><linearGradient
       id="swatch36"><stop
         style="stop-color:#c59a23;stop-opacity:1;"
         offset="0"
         id="stop36" /></linearGradient><linearGradient
       id="swatch35"><stop
         style="stop-color:#656839;stop-opacity:1;"
         offset="0"
         id="stop35" /></linearGradient><linearGradient
       id="swatch34"><stop
         style="stop-color:#ccc5b9;stop-opacity:1;"
         offset="0"
         id="stop34" /></linearGradient><linearGradient
       id="swatch33"><stop
         style="stop-color:#685f74;stop-opacity:1;"
         offset="0"
         id="stop33" /></linearGradient><linearGradient
       id="swatch32"><stop
         style="stop-color:#cc2936;stop-opacity:1;"
         offset="0"
         id="stop32" /></linearGradient><linearGradient
       id="swatch30"><stop
         style="stop-color:#f6511d;stop-opacity:1;"
         offset="0"
         id="stop31" /></linearGradient><linearGradient
       id="swatch28"
       gradientTransform="matrix(0.26458333,0,0,0.1024601,-92.997967,172.05958)"><stop
         style="stop-color:#09bc8a;stop-opacity:1;"
         offset="0"
         id="stop28" /></linearGradient><linearGradient
       id="swatch27"><stop
         style="stop-color:#dc76e3;stop-opacity:1;"
         offset="0"
         id="stop27" /></linearGradient><linearGradient
       id="swatch26"><stop
         style="stop-color:#0081a7;stop-opacity:1;"
         offset="0"
         id="stop26" /></linearGradient></defs><g
     id="layer2"
     style="display:inline"
     transform="translate(-3.9687464,-325.65997)"><g
       id="layer9"><path
         style="display:inline;fill:#000000;fill-opacity:0.15;stroke-width:1"
         d="m 6.833004,332.94096 c -0.158194,-0.0311 -0.272953,-0.12104 -0.340397,-0.2668 -0.03311,-0.0716 -0.03335,-0.0809 -0.03651,-1.73235 -0.0016,-0.91322 -0.0065,-1.68222 -0.01036,-1.70891 -0.02461,-0.16597 -1.113439,-1.47603 -1.960701,-2.35911 -0.46104,-0.48053 -0.516286,-0.55633 -0.516286,-0.70837 0,-0.34184 0.373877,-0.60409 0.669389,-0.46951 0.206439,0.094 1.602147,1.64246 2.224434,2.46789 0.08197,0.10872 0.0897,0.11472 0.13442,0.10426 0.02607,-0.006 0.508192,-0.0139 1.071347,-0.0174 0.563147,-0.003 1.023904,-0.009 1.023904,-0.0131 0,-0.004 -0.14054,-0.28854 -0.312309,-0.63284 l -0.312317,-0.62601 4.77e-4,-0.11369 c 0.0016,-0.38347 0.470763,-0.57164 0.732455,-0.29376 0.191885,0.20376 2.120944,4.21568 2.133944,4.43803 0.01546,0.26461 -0.195058,0.46607 -0.46147,0.44159 -0.107521,-0.01 -1.250951,-0.35595 -1.319408,-0.39934 -0.480937,-0.3048 -0.127418,-0.93117 0.42871,-0.75957 0.146555,0.0453 0.14632,0.0686 0.0024,-0.23912 -0.11369,-0.24299 -0.09342,-0.22815 -0.267829,-0.19604 -0.06338,0.0117 -0.461129,0.0175 -1.197858,0.0176 l -1.102973,1.2e-4 v 1.35144 c 0,1.31056 -8.1e-4,1.35398 -0.03149,1.43556 -0.07787,0.20825 -0.311613,0.3267 -0.551531,0.27954 z m 4.248144,-3.85798 c -0.405333,-0.0618 -0.712429,-0.42945 -0.710284,-0.85035 0.004,-0.75074 0.909736,-1.12046 1.441767,-0.58843 0.579336,0.57934 0.07949,1.56243 -0.731483,1.43878 z"
         id="path41-5" /></g></g></svg>
