<?xml version="1.0" encoding="UTF-8" standalone="no"?>
<!-- Created with Inkscape (http://www.inkscape.org/) -->

<svg
   width="37.795197"
   height="30.795532"
   viewBox="0 0 9.9999789 8.1479845"
   version="1.1"
   id="svg1"
   xml:space="preserve"
   xmlns="http://www.w3.org/2000/svg"
   xmlns:svg="http://www.w3.org/2000/svg"><defs
     id="defs1"><linearGradient
       id="swatch37"><stop
         style="stop-color:#0a100d;stop-opacity:1;"
         offset="0"
         id="stop37" /></linearGradient><linearGradient
       id="swatch36"><stop
         style="stop-color:#c59a23;stop-opacity:1;"
         offset="0"
         id="stop36" /></linearGradient><linearGradient
       id="swatch35"><stop
         style="stop-color:#656839;stop-opacity:1;"
         offset="0"
         id="stop35" /></linearGradient><linearGradient
       id="swatch34"><stop
         style="stop-color:#ccc5b9;stop-opacity:1;"
         offset="0"
         id="stop34" /></linearGradient><linearGradient
       id="swatch33"><stop
         style="stop-color:#685f74;stop-opacity:1;"
         offset="0"
         id="stop33" /></linearGradient><linearGradient
       id="swatch32"><stop
         style="stop-color:#cc2936;stop-opacity:1;"
         offset="0"
         id="stop32" /></linearGradient><linearGradient
       id="swatch30"><stop
         style="stop-color:#f6511d;stop-opacity:1;"
         offset="0"
         id="stop31" /></linearGradient><linearGradient
       id="swatch28"
       gradientTransform="matrix(0.26458333,0,0,0.1024601,-92.997967,172.05958)"><stop
         style="stop-color:#09bc8a;stop-opacity:1;"
         offset="0"
         id="stop28" /></linearGradient><linearGradient
       id="swatch27"><stop
         style="stop-color:#dc76e3;stop-opacity:1;"
         offset="0"
         id="stop27" /></linearGradient><linearGradient
       id="swatch26"><stop
         style="stop-color:#0081a7;stop-opacity:1;"
         offset="0"
         id="stop26" /></linearGradient></defs><g
     id="layer2"
     style="display:inline"
     transform="translate(14.034823,-325.24218)"><g
       id="layer9"><path
         style="display:inline;fill:#000000;fill-opacity:0.15;stroke-width:1"
         d="m -13.695197,333.35275 c -0.28443,-0.092 -0.42249,-0.42716 -0.28741,-0.69767 0.0385,-0.0772 0.23281,-0.29615 0.72316,-0.81513 l 0.67047,-0.70962 1.0279,-1.89229 c 0.57281,-1.05449 1.05948,-1.92817 1.09924,-1.97335 0.24585,-0.27934 0.6241497,-0.2792 1.0549097,3.7e-4 l 0.0876,0.0569 -0.22336,0.01 -0.22337,0.01 0.76536,0.17171 0.76535,0.17172 0.63714,-0.13745 c 0.68848,-0.14853 0.74502,-0.1551 0.86331,-0.10033 0.31354,0.14516 0.32698,0.60865 0.0219,0.75344 -0.0895,0.0424 -1.40794,0.32719 -1.52007,0.32828 -0.0487,4.4e-4 -0.448,-0.0801 -0.88734,-0.17907 -0.43935,-0.099 -0.80231,-0.17644 -0.80658,-0.17217 -0.0156,0.0156 1.54986,0.70599 1.62353,0.71596 0.0694,0.009 0.0422,0.022 -0.31326,0.14465 -0.39352,0.1358 -0.56255,0.22299 -0.62905,0.32448 l -0.0301,0.046 -0.0479,-0.0449 c -0.0263,-0.0247 -0.0964,-0.11406 -0.15572,-0.19864 -0.0593,-0.0846 -0.11493,-0.14625 -0.12358,-0.13705 -0.021,0.0223 -0.4700697,0.81386 -0.4697697,0.828 1.5e-4,0.006 0.3061097,0.20047 0.6799397,0.432 0.96395,0.59698 0.90574,0.52695 0.92743,1.116 0.0268,0.7293 0.0213,1.57807 -0.0109,1.65505 -0.1687,0.40375 -0.73425,0.42263 -0.9243,0.0309 -0.0442,-0.0911 -0.0615,-0.39062 -0.0637,-1.1021 l -0.002,-0.54198 -0.0538,-0.038 c -0.0812,-0.0573 -1.5723197,-0.98275 -1.5835297,-0.98275 -0.005,0 -0.15407,0.29295 -0.33049,0.651 l -0.32075,0.65101 -0.73804,0.78058 c -0.85964,0.90921 -0.90506,0.94112 -1.20242,0.84491 z m 6.3274197,-0.007 c -0.12929,-0.0461 -0.24177,-0.15327 -0.29897,-0.28482 l -0.0435,-0.1 0.0436,-1.0279 c 0.0744,-1.75301 -10e-4,-1.5821 0.82904,-1.8694 0.88996,-0.3079 0.92526,-0.37353 0.69974,-1.3012 -0.12019,-0.49438 -0.12084,-0.49858 -0.0876,-0.56779 0.0941,-0.19617 0.11328,-0.42287 0.051,-0.60326 -0.0195,-0.0565 -0.0335,-0.10279 -0.0311,-0.10279 0.0328,0 1.5581,1.61023 1.60054,1.68965 0.079,0.14784 0.0738,0.19521 -0.11014,1.00033 l -0.16501,0.72228 0.40018,0.87341 c 0.2201,0.48037 0.41281,0.92105 0.42824,0.97929 0.10282,0.38801 -0.28114,0.73326 -0.65747,0.59121 -0.20026,-0.0756 -0.20943,-0.0909 -0.71606,-1.19805 -0.5225,-1.14181 -0.51764,-1.12783 -0.46966,-1.3511 0.0187,-0.0872 0.0302,-0.16243 0.0256,-0.16712 -0.0151,-0.0151 -0.73817,0.3672 -0.73913,0.39084 -0.05,1.23212 -0.0949,1.96991 -0.12406,2.03844 -0.10848,0.25511 -0.38096,0.37863 -0.63521,0.28798 z m -1.47167,-3.08855 c -0.26317,-0.11412 -0.3292,-0.45042 -0.13026,-0.66336 0.091,-0.0974 0.0613,-0.0856 1.16291,-0.46184 l 0.59227,-0.20228 v -0.12341 c 0,-0.0679 0.005,-0.1234 0.0101,-0.1234 0.0335,0 0.48547,-0.10391 0.56356,-0.12957 0.0517,-0.017 0.13319,-0.0608 0.1811,-0.0974 l 0.0871,-0.0665 v 0.43173 c 0,0.7666 0.0997,0.67533 -1.2423,1.13697 -1.01925,0.35061 -1.07446,0.3641 -1.22452,0.29902 z m 0.82916,-3.14116 c -0.28156,-0.0398 -0.63351,-0.3549 -0.63351,-0.56711 0,-0.0635 -0.0274,-0.0586 -0.10128,0.0183 -0.59323,0.61737 -1.6155097,-0.0945 -1.25181,-0.87167 0.30687,-0.65576 1.22397,-0.58449 1.44935,0.11263 l 0.0232,0.0719 0.0881,-0.0881 c 0.3731,-0.3731 1.02285,-0.25456 1.24857,0.22777 0.2127,0.45455 -0.0777,1.0221 -0.55632,1.08739 -0.048,0.007 -0.10489,0.0144 -0.12643,0.0175 -0.0215,0.003 -0.0845,-7.9e-4 -0.13986,-0.009 z"
         id="path32-8" /></g></g></svg>
