<?xml version="1.0" encoding="UTF-8" standalone="no"?>
<!-- Created with Inkscape (http://www.inkscape.org/) -->

<svg
   width="45.325531"
   height="39.239624"
   viewBox="0 0 11.99238 10.38215"
   version="1.1"
   id="svg1"
   xml:space="preserve"
   xmlns="http://www.w3.org/2000/svg"
   xmlns:svg="http://www.w3.org/2000/svg"><defs
     id="defs1"><linearGradient
       id="swatch37"><stop
         style="stop-color:#0a100d;stop-opacity:1;"
         offset="0"
         id="stop37" /></linearGradient><linearGradient
       id="swatch36"><stop
         style="stop-color:#c59a23;stop-opacity:1;"
         offset="0"
         id="stop36" /></linearGradient><linearGradient
       id="swatch35"><stop
         style="stop-color:#656839;stop-opacity:1;"
         offset="0"
         id="stop35" /></linearGradient><linearGradient
       id="swatch34"><stop
         style="stop-color:#ccc5b9;stop-opacity:1;"
         offset="0"
         id="stop34" /></linearGradient><linearGradient
       id="swatch33"><stop
         style="stop-color:#685f74;stop-opacity:1;"
         offset="0"
         id="stop33" /></linearGradient><linearGradient
       id="swatch32"><stop
         style="stop-color:#cc2936;stop-opacity:1;"
         offset="0"
         id="stop32" /></linearGradient><linearGradient
       id="swatch30"><stop
         style="stop-color:#f6511d;stop-opacity:1;"
         offset="0"
         id="stop31" /></linearGradient><linearGradient
       id="swatch28"
       gradientTransform="matrix(0.26458333,0,0,0.1024601,-92.997967,172.05958)"><stop
         style="stop-color:#09bc8a;stop-opacity:1;"
         offset="0"
         id="stop28" /></linearGradient><linearGradient
       id="swatch27"><stop
         style="stop-color:#dc76e3;stop-opacity:1;"
         offset="0"
         id="stop27" /></linearGradient><linearGradient
       id="swatch26"><stop
         style="stop-color:#0081a7;stop-opacity:1;"
         offset="0"
         id="stop26" /></linearGradient></defs><g
     id="layer2"
     style="display:inline"
     transform="translate(-98.689944,-324.1146)"><g
       id="layer9"><path
         style="display:inline;fill:#000000;fill-opacity:0.15;stroke-width:0.999998"
         d="m 100.62766,324.1781 c 0.063,-0.0935 0.1245,-0.0852 0.25666,0.0344 0.12763,0.11547 0.3957,0.27385 0.58296,0.34434 l 0.0641,0.0244 -0.10845,0.0647 -0.10845,0.0647 0.11174,-0.0623 0.11173,-0.0623 0.16395,0.047 c 0.19867,0.0574 0.36914,0.0906 0.77605,0.15318 0.5489,0.084 0.60938,0.0954 0.92796,0.17493 0.53251,0.13337 0.93126,0.29622 1.32419,0.54211 0.15409,0.0965 0.1454,0.0873 0.10739,0.11263 l -0.0301,0.0201 0.0366,-0.0188 0.0367,-0.0187 0.0681,0.0485 c 0.57425,0.40877 1.11011,0.99978 1.52655,1.68364 0.04,0.0657 0.0745,0.11987 0.0768,0.12047 0.003,7.8e-4 2.53663,-1.4609 2.5904,-1.49431 0.006,-0.004 0.004,-0.005 -0.12616,-0.0797 -0.0586,-0.0336 -0.14828,-0.0863 -0.19926,-0.11695 -0.051,-0.0308 -0.10499,-0.0614 -0.1201,-0.0681 -0.0422,-0.0186 -0.0566,-0.0355 -0.033,-0.038 0.0117,-0.001 0.025,0.007 0.0352,0.0215 l 0.0164,0.0235 -0.0121,-0.0258 -0.0121,-0.0258 0.66469,-0.13368 c 0.36559,-0.0735 0.81297,-0.16375 0.99422,-0.20052 0.18123,-0.0367 0.33064,-0.0649 0.332,-0.0625 0.001,0.002 -0.10106,0.1214 -0.22753,0.26454 -0.12655,0.14311 -0.4283,0.48554 -0.67064,0.76093 l -0.44061,0.5007 -0.0164,-0.0237 -0.0164,-0.0237 0.0122,0.0259 c 0.008,0.0162 0.008,0.0318 10e-4,0.0413 -0.0134,0.0192 -0.021,-0.001 -0.0166,-0.0476 0.002,-0.0241 0.002,-0.44967 -6.8e-4,-0.50697 -7.8e-4,-0.0125 -2.26785,1.28156 -2.53052,1.44419 l -0.065,0.0402 0.0778,0.14763 c 0.29546,0.56085 0.50482,1.14051 0.605,1.67509 0.0305,0.16304 0.0669,0.43138 0.0613,0.45236 -0.004,0.0132 -0.42485,0.25884 -0.42948,0.25037 -10e-4,-0.002 -0.0156,-0.0734 -0.0312,-0.15646 -0.0797,-0.42668 -0.23019,-0.89123 -0.43958,-1.35694 -0.0602,-0.1339 -0.18859,-0.39778 -0.24192,-0.4972 -0.0519,-0.0968 -0.0745,-0.13738 -0.0964,-0.17312 l -0.0261,-0.0426 -0.7754,0.44764 -0.77541,0.44763 -0.0354,-0.0603 -0.0354,-0.0603 0.65253,-0.37879 0.65253,-0.37879 -0.65427,0.37569 -0.65426,0.3757 -0.0416,-0.073 -0.0416,-0.073 0.77685,-0.45016 0.77686,-0.45017 -0.0287,-0.0479 c -0.45522,-0.75852 -1.06502,-1.48554 -1.51588,-1.80729 -0.0538,-0.0384 -0.0538,-0.0381 -0.009,-0.0671 l 0.0341,-0.0221 -0.0414,0.021 -0.0414,0.021 -0.0944,-0.0684 c -0.26417,-0.19127 -0.55503,-0.34779 -0.90018,-0.4844 -0.1579,-0.0625 -0.66296,-0.19471 -0.88512,-0.23199 l -0.17591,-0.0293 -0.0852,-0.14378 -0.0852,-0.14379 0.0794,0.14126 c 0.0534,0.0949 0.0745,0.14155 0.0644,0.14214 -0.0163,8.2e-4 -0.177,-0.0262 -0.37587,-0.0635 -0.2217,-0.0416 -0.48465,-0.11848 -0.67418,-0.1969 l -0.0446,-0.0182 0.0288,-0.0194 0.0288,-0.0194 -0.0337,0.0179 -0.0337,0.0179 -0.0941,-0.0483 -0.0941,-0.0483 0.0118,0.0247 c 0.007,0.0136 0.0264,0.0481 0.0441,0.0766 l 0.0322,0.0518 -0.0697,0.0406 -0.0697,0.0406 -0.13169,-0.22615 c -0.11187,-0.19211 -0.14029,-0.23356 -0.1888,-0.27545 -0.0849,-0.0733 -0.10353,-0.13784 -0.0589,-0.20415 z m 3.90977,1.61631 c 0.002,5.2e-4 0.0194,-0.01 0.0394,-0.0228 l 0.0364,-0.0236 -0.0386,0.0198 c -0.036,0.0184 -0.0446,0.0246 -0.0373,0.0266 z m 0.097,-0.056 c 0.002,5.2e-4 0.0194,-0.01 0.0394,-0.0228 l 0.0364,-0.0236 -0.0386,0.0198 c -0.036,0.0184 -0.0446,0.0246 -0.0373,0.0266 z m 0.097,-0.056 c 0.002,5.1e-4 0.0194,-0.01 0.0394,-0.0228 l 0.0364,-0.0236 -0.0386,0.0198 c -0.036,0.0184 -0.0446,0.0246 -0.0373,0.0266 z m 3.6496,0.90119 0.63025,-0.36382 0.0411,0.0672 0.0411,0.0672 -0.0377,-0.0692 -0.0377,-0.0692 0.66119,-0.38378 0.66118,-0.38379 -0.66293,0.38071 -0.66294,0.3807 -0.0376,-0.0611 -0.0376,-0.0611 0.0341,0.0632 0.0341,0.0632 -0.62719,0.3621 c -0.34496,0.19917 -0.62776,0.36426 -0.62846,0.36686 -7.8e-4,0.003 0.28233,-0.15895 0.62897,-0.35905 z m -9.517435,4.70305 0.17394,-0.0994 0.36188,0.097 0.36189,0.097 0.12114,-0.0708 0.121145,-0.0708 0.0374,0.0637 c 0.0205,0.0351 0.0336,0.0677 0.029,0.0726 -0.004,0.005 0.26773,-0.15007 0.60515,-0.34429 0.33742,-0.19423 0.61406,-0.35529 0.61476,-0.35792 7.7e-4,-0.003 -0.27013,0.15186 -0.60186,0.34332 l -0.60314,0.3481 -0.143475,-0.24842 -0.14349,-0.24842 0.289845,0.0777 0.28984,0.0777 0.12836,-0.0758 0.12837,-0.0758 -0.35622,-0.0986 -0.356215,-0.0985 0.175395,-0.10148 0.1754,-0.10149 0.36095,0.0967 0.36095,0.0967 1.25585,-0.72528 c 0.69073,-0.39891 1.25492,-0.72717 1.25378,-0.72947 -10e-4,-0.002 -0.5627,-0.97549 -1.2479,-2.16263 l -1.24582,-2.15843 0.0691,-0.0399 0.0691,-0.0399 1.24733,2.16042 c 0.68604,1.18823 1.24792,2.16058 1.24862,2.16077 7.1e-4,1.9e-4 0.18795,-0.10758 0.41609,-0.23949 l 0.41482,-0.23984 0.0772,0.13327 c 0.0425,0.0733 0.0753,0.1362 0.0729,0.13981 -0.002,0.004 -0.18873,0.11312 -0.41406,0.24338 l -0.40971,0.23686 1.28546,2.22665 c 0.707,1.22465 1.28937,2.23218 1.29415,2.23894 0.005,0.008 0.0116,-0.0279 0.0159,-0.10048 0.0125,-0.19815 0.0309,-0.29922 0.10331,-0.56869 0.0611,-0.22745 0.19318,-0.62167 0.21251,-0.63432 0.002,-10e-4 0.0422,0.0595 0.0877,0.13623 l 0.0827,0.1395 -0.0819,-0.14564 -0.082,-0.14563 0.0688,-0.19097 c 0.24626,-0.68411 0.33018,-1.32998 0.25338,-1.94978 l -0.0177,-0.14251 0.21546,-0.12457 c 0.11846,-0.0685 0.21755,-0.12063 0.22008,-0.11584 0.006,0.01 0.0144,0.18812 0.0177,0.34536 0.004,0.21818 -0.0227,0.54888 -0.0659,0.80216 -0.074,0.43407 -0.1608,0.71757 -0.44388,1.44909 -0.13641,0.3526 -0.19209,0.51792 -0.24139,0.71659 l -0.0425,0.17034 -0.14011,0.0831 -0.14011,0.0831 0.14041,-0.0789 0.14042,-0.0789 -0.01,0.0628 c -0.0325,0.20936 -0.028,0.50349 0.0104,0.68299 0.0318,0.14854 0.012,0.20717 -0.0762,0.22651 -0.091,0.0199 -0.14086,-0.0239 -0.17078,-0.15007 -0.0195,-0.0821 -0.0617,-0.15782 -0.80446,-1.44471 -0.76363,-1.32295 -0.78334,-1.35844 -0.76202,-1.37217 0.0214,-0.0137 0.0213,-0.0139 -0.002,-0.004 -0.0232,0.0105 -0.0392,-0.0157 -0.61492,-1.01307 l -0.59112,-1.02391 -1.25792,0.72612 -1.25792,0.72612 -0.0961,0.35869 -0.0961,0.35869 -0.17573,0.10126 -0.17574,0.10124 0.0941,-0.35127 c 0.0518,-0.19321 0.0912,-0.35206 0.0864,-0.35335 -0.004,-0.001 -0.0632,0.0304 -0.1315,0.07 l -0.12414,0.072 -0.0749,0.27953 c -0.0412,0.15374 -0.0778,0.27874 -0.0817,0.27771 -0.004,-10e-4 -0.0688,-0.10716 -0.1443,-0.23595 -0.0755,-0.12873 -0.12144,-0.20521 -0.10215,-0.16997 l 0.0351,0.0641 -0.12498,0.0707 -0.124975,0.0707 -0.0959,0.35792 -0.0959,0.35792 -0.17588,0.10217 -0.17589,0.10218 0.12417,-0.46368 0.12416,-0.46368 0.22193,-0.13024 0.221935,-0.13023 -0.223865,0.12715 -0.22388,0.12715 -0.46083,-0.12658 -0.46084,-0.12659 z m 4.424065,-1.74822 c 9.7e-4,2.6e-4 0.28914,-0.1658 0.63955,-0.36924 l 0.63713,-0.36989 -0.6389,0.36682 c -0.59387,0.34096 -0.64449,0.37051 -0.63778,0.37231 z m 2.88191,4.2772 c 9.7e-4,2.6e-4 0.0329,-0.0177 0.0697,-0.0402 l 0.067,-0.041 -0.069,0.0375 c -0.0641,0.0349 -0.0749,0.0417 -0.0677,0.0437 z m -6.687095,-2.88656 0.17356,-0.1 0.0673,0.0201 0.0673,0.0201 0.10021,0.17392 0.1002,0.17393 -0.34171,-0.0916 c -0.18794,-0.0504 -0.34146,-0.0925 -0.34094,-0.0945 2.6e-4,-9.7e-4 0.0788,-0.0475 0.17423,-0.10251 z m 0.788985,0.77338 0.10177,0.17574 -0.0202,0.0678 -0.0202,0.0678 -0.1741,0.10031 -0.174125,0.10031 0.0922,-0.34398 0.0922,-0.34399 z"
         id="path45-6" /></g></g></svg>
