<?xml version="1.0" encoding="UTF-8" standalone="no"?>
<!-- Created with Inkscape (http://www.inkscape.org/) -->

<svg
   width="37.797546"
   height="37.806152"
   viewBox="0 0 10.000601 10.002878"
   version="1.1"
   id="svg1"
   xml:space="preserve"
   xmlns="http://www.w3.org/2000/svg"
   xmlns:svg="http://www.w3.org/2000/svg"><defs
     id="defs1"><linearGradient
       id="swatch37"><stop
         style="stop-color:#0a100d;stop-opacity:1;"
         offset="0"
         id="stop37" /></linearGradient><linearGradient
       id="swatch36"><stop
         style="stop-color:#c59a23;stop-opacity:1;"
         offset="0"
         id="stop36" /></linearGradient><linearGradient
       id="swatch35"><stop
         style="stop-color:#656839;stop-opacity:1;"
         offset="0"
         id="stop35" /></linearGradient><linearGradient
       id="swatch34"><stop
         style="stop-color:#ccc5b9;stop-opacity:1;"
         offset="0"
         id="stop34" /></linearGradient><linearGradient
       id="swatch33"><stop
         style="stop-color:#685f74;stop-opacity:1;"
         offset="0"
         id="stop33" /></linearGradient><linearGradient
       id="swatch32"><stop
         style="stop-color:#cc2936;stop-opacity:1;"
         offset="0"
         id="stop32" /></linearGradient><linearGradient
       id="swatch30"><stop
         style="stop-color:#f6511d;stop-opacity:1;"
         offset="0"
         id="stop31" /></linearGradient><linearGradient
       id="swatch28"
       gradientTransform="matrix(0.26458333,0,0,0.1024601,-92.997967,172.05958)"><stop
         style="stop-color:#09bc8a;stop-opacity:1;"
         offset="0"
         id="stop28" /></linearGradient><linearGradient
       id="swatch27"><stop
         style="stop-color:#dc76e3;stop-opacity:1;"
         offset="0"
         id="stop27" /></linearGradient><linearGradient
       id="swatch26"><stop
         style="stop-color:#0081a7;stop-opacity:1;"
         offset="0"
         id="stop26" /></linearGradient></defs><g
     id="layer2"
     style="display:inline"
     transform="translate(-67.462414,-324.30422)"><g
       id="layer9"><path
         style="display:inline;fill:#000000;fill-opacity:0.15;stroke-width:0.999999"
         d="m 77.032175,334.30143 c -0.16845,-0.0316 -0.28215,-0.1636 -0.29652,-0.34434 l -0.006,-0.0697 -0.28681,-0.26641 c -0.15775,-0.14652 -0.30249,-0.28204 -0.32164,-0.30116 -0.0192,-0.0191 -0.0878,-0.0837 -0.15245,-0.14354 -0.1467,-0.13569 -0.15335,-0.14189 -0.24919,-0.23241 -0.0432,-0.0408 -0.11175,-0.10501 -0.15235,-0.14268 -0.0406,-0.0377 -0.13613,-0.12725 -0.21228,-0.19904 -0.0762,-0.0718 -0.15323,-0.14286 -0.17127,-0.15793 l -0.0328,-0.0274 -0.46863,0.46875 c -0.54344,0.54357 -0.49943,0.51267 -0.59732,0.4193 -0.10226,-0.0975 -0.10222,-0.11474 4.8e-4,-0.25715 0.0392,-0.0544 0.0872,-0.12186 0.1067,-0.14992 0.0195,-0.0281 0.0821,-0.11636 0.13923,-0.19623 0.0571,-0.0799 0.11351,-0.15927 0.12532,-0.17645 0.0118,-0.0172 0.0793,-0.11135 0.14996,-0.20927 l 0.12848,-0.17802 -0.0877,-0.0841 c -0.0482,-0.0462 -0.15778,-0.15083 -0.24346,-0.23242 -0.0857,-0.0816 -0.17399,-0.16615 -0.19625,-0.18791 -0.0416,-0.0407 -0.0734,-0.0709 -0.4203,-0.40072 -0.1115,-0.10598 -0.25837,-0.24644 -0.32638,-0.31213 -0.068,-0.0657 -0.31496,-0.30158 -0.54878,-0.52418 -0.23383,-0.2226 -0.43214,-0.4114 -0.44069,-0.41956 -0.008,-0.008 -0.10651,-0.10162 -0.21769,-0.2077 -0.11119,-0.10607 -0.2489,-0.23761 -0.30602,-0.2923 -0.24322,-0.23287 -0.31496,-0.30123 -0.40939,-0.39011 -0.0549,-0.0517 -0.15772,-0.14991 -0.22848,-0.2183 -0.0708,-0.0684 -0.16869,-0.16156 -0.21765,-0.20705 -0.049,-0.0455 -0.0957,-0.0901 -0.10385,-0.0991 -0.008,-0.009 -0.066,-0.0647 -0.12857,-0.12371 -0.0625,-0.059 -0.16725,-0.15878 -0.23267,-0.22165 -0.0654,-0.0629 -0.1611,-0.15433 -0.21264,-0.20326 -0.15609,-0.1482 -0.32557,-0.31001 -0.42996,-0.41051 -0.0544,-0.0524 -0.19681,-0.1882 -0.31648,-0.30186 -0.35026,-0.33263 -0.38842,-0.36899 -0.52915,-0.50416 -0.28332,-0.27212 -0.52714,-0.5046 -0.53419,-0.50934 -0.004,-0.003 -0.0958,-0.0901 -0.20387,-0.19416 -0.10809,-0.10407 -0.22859,-0.21978 -0.26777,-0.25714 -0.0589,-0.0562 -0.0755,-0.0792 -0.0957,-0.13309 -0.0135,-0.0358 -0.0709,-0.17603 -0.1277,-0.31154 -0.0568,-0.13551 -0.13992,-0.33539 -0.1848,-0.44418 -0.0449,-0.10879 -0.1106,-0.26679 -0.14604,-0.3511 -0.0354,-0.0843 -0.0701,-0.16887 -0.077,-0.18791 -0.007,-0.019 -0.0197,-0.0512 -0.0284,-0.0715 -0.0158,-0.0368 -0.0158,-0.0369 0.007,-0.0281 0.0369,0.0144 0.28037,0.11471 0.42283,0.17414 0.0734,0.0306 0.18248,0.0758 0.24231,0.10034 0.0598,0.0246 0.25201,0.10429 0.42705,0.17719 0.17504,0.0729 0.32356,0.13255 0.33003,0.13255 0.006,0 0.0435,0.0327 0.0823,0.0726 0.16144,0.16625 0.45659,0.47428 0.46118,0.4813 0.004,0.007 0.18042,0.19127 0.51428,0.53904 0.068,0.0708 0.16774,0.17544 0.22166,0.23247 0.0539,0.057 0.14296,0.15042 0.19787,0.20754 0.0549,0.0571 0.1887,0.19731 0.2973,0.31154 0.10861,0.11423 0.24446,0.25665 0.30189,0.31648 0.0574,0.0598 0.1445,0.15107 0.19349,0.20275 0.049,0.0517 0.14454,0.15181 0.21235,0.22253 0.24239,0.25279 0.3515,0.36724 0.43369,0.45494 0.0459,0.049 0.13945,0.14701 0.20792,0.21791 0.0685,0.0709 0.20703,0.21553 0.30792,0.32143 0.10088,0.10589 0.2789,0.29266 0.3956,0.41505 0.1167,0.12239 0.21715,0.22201 0.22322,0.22138 0.006,-6.4e-4 0.0105,0.004 0.01,0.0109 -0.001,0.0107 0.11158,0.13161 0.48837,0.52436 0.32461,0.33836 0.49999,0.52229 0.50443,0.52902 0.004,0.006 0.28503,0.3008 0.43858,0.45982 0.0264,0.0273 0.10813,0.11295 0.18174,0.19036 0.0736,0.0774 0.13841,0.13792 0.144,0.13446 0.006,-0.003 0.007,-0.002 0.004,0.004 -0.003,0.005 0.0148,0.032 0.0405,0.059 0.0447,0.047 0.2861,0.30004 0.45215,0.47393 l 0.0791,0.0828 0.0643,-0.0477 c 0.0631,-0.0469 0.21537,-0.15569 0.32701,-0.23375 0.0311,-0.0217 0.11528,-0.0818 0.18702,-0.13351 0.0717,-0.0517 0.15343,-0.10988 0.18155,-0.12934 0.0281,-0.0195 0.0956,-0.0675 0.15002,-0.1067 0.14241,-0.1027 0.15961,-0.10273 0.25715,-4.7e-4 0.0932,0.0977 0.1241,0.0536 -0.41927,0.59717 l -0.46871,0.46886 0.0274,0.0328 c 0.0151,0.018 0.0925,0.10175 0.17201,0.18606 0.13638,0.14454 0.18968,0.20147 0.33311,0.35585 0.0329,0.0355 0.0996,0.10677 0.14803,0.15844 0.0485,0.0517 0.11086,0.11844 0.13867,0.14836 0.0278,0.0299 0.0928,0.0989 0.14451,0.15329 0.0517,0.0544 0.18687,0.19904 0.30045,0.32143 l 0.20652,0.22253 0.0771,0.006 c 0.41588,0.0327 0.4659,0.60946 0.0622,0.7173 -0.0485,0.013 -0.10465,0.0152 -0.15289,0.006 z"
         id="path35-2" /></g></g></svg>
