<?xml version="1.0" encoding="UTF-8" standalone="no"?>
<!-- Created with Inkscape (http://www.inkscape.org/) -->

<svg
   width="37.795471"
   height="38.395264"
   viewBox="0 0 10.000052 10.158747"
   version="1.1"
   id="svg1"
   xml:space="preserve"
   xmlns="http://www.w3.org/2000/svg"
   xmlns:svg="http://www.w3.org/2000/svg"><defs
     id="defs1"><linearGradient
       id="swatch37"><stop
         style="stop-color:#0a100d;stop-opacity:1;"
         offset="0"
         id="stop37" /></linearGradient><linearGradient
       id="swatch36"><stop
         style="stop-color:#c59a23;stop-opacity:1;"
         offset="0"
         id="stop36" /></linearGradient><linearGradient
       id="swatch35"><stop
         style="stop-color:#656839;stop-opacity:1;"
         offset="0"
         id="stop35" /></linearGradient><linearGradient
       id="swatch34"><stop
         style="stop-color:#ccc5b9;stop-opacity:1;"
         offset="0"
         id="stop34" /></linearGradient><linearGradient
       id="swatch33"><stop
         style="stop-color:#685f74;stop-opacity:1;"
         offset="0"
         id="stop33" /></linearGradient><linearGradient
       id="swatch32"><stop
         style="stop-color:#cc2936;stop-opacity:1;"
         offset="0"
         id="stop32" /></linearGradient><linearGradient
       id="swatch30"><stop
         style="stop-color:#f6511d;stop-opacity:1;"
         offset="0"
         id="stop31" /></linearGradient><linearGradient
       id="swatch28"
       gradientTransform="matrix(0.26458333,0,0,0.1024601,-92.997967,172.05958)"><stop
         style="stop-color:#09bc8a;stop-opacity:1;"
         offset="0"
         id="stop28" /></linearGradient><linearGradient
       id="swatch27"><stop
         style="stop-color:#dc76e3;stop-opacity:1;"
         offset="0"
         id="stop27" /></linearGradient><linearGradient
       id="swatch26"><stop
         style="stop-color:#0081a7;stop-opacity:1;"
         offset="0"
         id="stop26" /></linearGradient></defs><g
     id="layer2"
     style="display:inline"
     transform="translate(-83.574446,-324.22627)"><g
       id="layer9"><path
         style="display:inline;fill:#000000;fill-opacity:0.15;stroke-width:1"
         d="m 84.706015,334.35953 c -0.53999,-0.11714 -1.11495,-0.64921 -0.85371,-0.79003 0.0708,-0.0382 0.11165,-0.0212 0.23984,0.0997 1.26084,1.18966 1.89673,-0.73304 0.67077,-2.02817 -0.11564,-0.12217 -0.11963,-0.11579 0.0672,-0.10726 0.27416,0.0125 0.4825,0.0572 0.69286,0.14872 0.12314,0.0535 0.12048,0.049 0.0621,0.10596 -0.044,0.043 -0.0454,0.0434 -0.0942,0.0303 -0.32407,-0.0873 -0.17567,0.47995 0.18742,0.71634 0.17496,0.11391 0.28758,0.0808 0.29606,-0.087 0.004,-0.085 0.005,-0.0855 0.0676,-0.15516 0.0785,-0.0868 0.0729,-0.0877 0.11691,0.0196 0.41116,1.00252 -0.47997,2.25807 -1.45287,2.04701 z m 7.26352,10e-4 c -0.79008,-0.17509 -1.33245,-1.35105 -0.96158,-2.0849 l 0.0288,-0.057 0.068,0.0703 0.068,0.0703 v 0.0818 c 0,0.22118 0.19523,0.21416 0.4215,-0.0151 0.29069,-0.2946 0.33664,-0.66375 0.0758,-0.60904 l -0.0634,0.0133 -0.0437,-0.0427 c -0.0565,-0.0551 -0.0583,-0.0512 0.0458,-0.0986 0.20086,-0.0915 0.43772,-0.14326 0.71018,-0.15531 0.18469,-0.008 0.18155,-0.0118 0.0808,0.094 -0.33637,0.35331 -0.54241,0.72228 -0.61943,1.10929 -0.23966,1.20425 0.45229,1.70813 1.27809,0.93072 0.27027,-0.25444 0.44697,-0.036 0.18358,0.22696 -0.38735,0.38673 -0.85585,0.55831 -1.27239,0.466 z m -8.19311,-0.0578 c -0.16859,-0.0431 -0.25027,-0.2233 -0.17222,-0.37991 0.0325,-0.0653 0.0974,-0.12299 0.1067,-0.095 0.0108,0.0324 0.17494,0.19875 0.2907,0.29465 0.066,0.0547 0.067,0.0584 0.0272,0.10022 -0.0629,0.0662 -0.17167,0.10069 -0.25243,0.08 z m 9.48068,-4.4e-4 c -0.0715,-0.0174 -0.17702,-0.0987 -0.16504,-0.12712 0.002,-0.004 0.0449,-0.0446 0.0958,-0.0894 0.10254,-0.0904 0.22609,-0.21694 0.24482,-0.25083 0.0338,-0.0611 0.1418,0.0964 0.1418,0.20677 0,0.16918 -0.15842,0.29926 -0.31733,0.26057 z m -8.97406,-0.6048 c -0.0564,-0.0473 -0.12546,-0.10987 -0.15358,-0.13902 l -0.0511,-0.053 0.0623,-0.0725 c 0.21312,-0.24804 0.37556,-0.42161 0.665,-0.71055 0.17973,-0.17942 0.33179,-0.32622 0.33791,-0.32622 0.0261,0 0.12224,0.3079 0.14631,0.46836 l 0.008,0.0522 -0.25254,0.25135 c -0.1389,0.13824 -0.33049,0.32091 -0.42576,0.40595 -0.0953,0.085 -0.18687,0.16696 -0.20356,0.18206 l -0.0303,0.0275 z m 8.29348,-0.0795 c -0.20347,-0.18139 -0.60651,-0.57263 -0.67856,-0.65869 l -0.0469,-0.056 0.0197,-0.10055 c 0.0345,-0.17629 0.11095,-0.40657 0.13505,-0.40657 0.0212,0 0.68501,0.67356 0.84777,0.86023 0.0886,0.10158 0.17274,0.19766 0.18703,0.21352 0.0143,0.0159 0.026,0.0322 0.026,0.0363 0,0.0127 -0.20517,0.20344 -0.25793,0.23974 l -0.05,0.0344 z m -6.87386,-1.31507 c -0.13291,-0.0658 -0.21403,-0.23107 -0.15738,-0.32066 0.0107,-0.0169 0.19123,-0.19674 0.40128,-0.39974 0.36187,-0.34972 0.9262,-0.89693 1.34614,-1.3053 0.49646,-0.48278 0.89964,-0.87211 0.94545,-0.91295 l 0.0505,-0.045 0.10209,0.10945 c 0.0562,0.0602 0.10228,0.11381 0.10251,0.11914 3.5e-4,0.009 -0.21334,0.2378 -0.51325,0.55037 -0.0579,0.0603 -0.20599,0.21623 -0.32909,0.34643 -0.21378,0.2261 -0.33251,0.35156 -0.51363,0.54274 -0.0451,0.0476 -0.26892,0.28407 -0.49731,0.52542 -0.86469,0.91376 -0.7629,0.81412 -0.83168,0.81411 -0.0346,-1e-5 -0.0763,-0.009 -0.10563,-0.024 z m 5.57784,0.0166 c -0.007,-0.003 -0.13719,-0.13642 -0.2884,-0.29644 -0.1512,-0.16001 -0.36858,-0.38962 -0.48306,-0.51025 -0.11449,-0.12062 -0.31174,-0.32848 -0.43835,-0.4619 -0.1266,-0.13343 -0.27753,-0.29197 -0.3354,-0.3523 -0.0579,-0.0603 -0.24245,-0.25521 -0.41016,-0.43304 -0.16772,-0.17784 -0.3444,-0.36491 -0.39263,-0.41572 -0.0482,-0.0508 -0.14437,-0.15214 -0.21364,-0.22518 -0.0693,-0.073 -0.17074,-0.17957 -0.22547,-0.23673 -0.0851,-0.0889 -0.72912,-0.76826 -1.37893,-1.45466 -0.4417,-0.46658 -0.65325,-0.68943 -0.76223,-0.80292 -0.114,-0.11873 -0.40751,-0.42842 -0.61315,-0.64693 -0.14653,-0.15571 -0.92464,-0.97699 -1.04981,-1.10805 -0.0575,-0.0602 -0.15144,-0.15892 -0.20879,-0.21941 -0.0574,-0.0605 -0.1487,-0.15674 -0.20299,-0.2139 -0.0543,-0.0572 -0.19948,-0.21046 -0.32264,-0.34066 -0.12316,-0.1302 -0.22668,-0.23948 -0.23005,-0.24284 -0.003,-0.003 -0.0321,-0.0345 -0.0639,-0.0692 l -0.0577,-0.0631 0.052,0.0461 c 0.0286,0.0253 0.1429,0.13444 0.25405,0.24246 0.11115,0.10802 0.28797,0.27954 0.39292,0.38116 0.10496,0.10162 0.26605,0.25758 0.35798,0.34658 0.0919,0.089 0.33343,0.32277 0.53667,0.51948 0.38023,0.36802 0.9904,0.95978 1.31641,1.27669 0.10163,0.0988 0.35368,0.3427 0.56009,0.54199 0.20642,0.1993 0.46364,0.44823 0.57161,0.55317 0.10798,0.10495 0.27166,0.26367 0.36376,0.35271 0.0921,0.089 0.25839,0.25035 0.36955,0.35846 0.11117,0.1081 0.29304,0.28468 0.40417,0.3924 0.11113,0.10772 0.28267,0.274 0.38119,0.36953 0.0985,0.0955 0.2622,0.25411 0.36375,0.35241 0.10154,0.0983 0.26777,0.25952 0.36939,0.35825 0.10162,0.0987 0.26276,0.25474 0.35809,0.34668 0.31123,0.30017 0.70167,0.6786 1.1254,1.09079 0.10458,0.10173 0.20201,0.20027 0.21652,0.21897 0.10755,0.13864 -0.14557,0.41522 -0.31622,0.34551 z m -2.5263,-3.25655 -0.10321,-0.0992 0.14363,-0.14028 c 0.079,-0.0771 0.4814,-0.46742 0.89423,-0.86726 0.41283,-0.39984 0.83634,-0.8104 0.94114,-0.91237 0.1048,-0.10196 0.27363,-0.2658 0.37518,-0.36409 0.10156,-0.0983 0.25745,-0.24979 0.34644,-0.33666 0.089,-0.0869 0.17276,-0.16741 0.18619,-0.17899 0.0218,-0.0188 0.34783,-0.33444 0.92224,-0.89284 0.10782,-0.10483 0.28832,-0.28117 0.4011,-0.39188 0.11278,-0.11071 0.21067,-0.20476 0.21753,-0.209 0.007,-0.004 0.094,-0.0878 0.1936,-0.18557 0.20581,-0.20209 0.2945,-0.28234 0.20918,-0.18924 -0.0573,0.0625 -0.65796,0.69715 -0.81956,0.86594 -0.0547,0.0572 -0.14357,0.15069 -0.19741,0.20785 -0.0538,0.0572 -0.20128,0.21306 -0.32765,0.34644 -0.12637,0.13337 -0.31565,0.33344 -0.42062,0.44458 -0.10498,0.11115 -0.24598,0.25925 -0.31333,0.32911 -0.0674,0.0699 -0.40479,0.42583 -0.74985,0.79102 -0.34505,0.3652 -0.68249,0.72116 -0.74985,0.79102 -0.0674,0.0699 -0.21586,0.22576 -0.32998,0.34643 -0.23148,0.24476 -0.35726,0.37744 -0.50358,0.5312 -0.0544,0.0572 -0.12116,0.12861 -0.14836,0.15878 -0.0613,0.0679 -0.0451,0.0723 -0.16706,-0.045 z"
         id="path36-2" /></g></g></svg>
