<?xml version="1.0" encoding="UTF-8" standalone="no"?>
<!-- Created with Inkscape (http://www.inkscape.org/) -->

<svg
   width="18.709"
   height="17.665955"
   viewBox="0 0 4.9500894 4.6741171"
   version="1.1"
   id="svg1"
   xml:space="preserve"
   sodipodi:docname="sword.svg"
   inkscape:version="1.4 (86a8ad7, 2024-10-11)"
   xmlns:inkscape="http://www.inkscape.org/namespaces/inkscape"
   xmlns:sodipodi="http://sodipodi.sourceforge.net/DTD/sodipodi-0.dtd"
   xmlns="http://www.w3.org/2000/svg"
   xmlns:svg="http://www.w3.org/2000/svg"><sodipodi:namedview
     id="namedview1"
     pagecolor="#ffffff"
     bordercolor="#000000"
     borderopacity="0.25"
     inkscape:showpageshadow="2"
     inkscape:pageopacity="0.0"
     inkscape:pagecheckerboard="0"
     inkscape:deskcolor="#d1d1d1"
     inkscape:zoom="47.591539"
     inkscape:cx="9.8757051"
     inkscape:cy="9.6971019"
     inkscape:window-width="2560"
     inkscape:window-height="1369"
     inkscape:window-x="-8"
     inkscape:window-y="-8"
     inkscape:window-maximized="1"
     inkscape:current-layer="svg1" /><defs
     id="defs1"><linearGradient
       id="swatch37"><stop
         style="stop-color:#0a100d;stop-opacity:1;"
         offset="0"
         id="stop37" /></linearGradient><linearGradient
       id="swatch36"><stop
         style="stop-color:#c59a23;stop-opacity:1;"
         offset="0"
         id="stop36" /></linearGradient><linearGradient
       id="swatch35"><stop
         style="stop-color:#656839;stop-opacity:1;"
         offset="0"
         id="stop35" /></linearGradient><linearGradient
       id="swatch34"><stop
         style="stop-color:#ccc5b9;stop-opacity:1;"
         offset="0"
         id="stop34" /></linearGradient><linearGradient
       id="swatch33"><stop
         style="stop-color:#685f74;stop-opacity:1;"
         offset="0"
         id="stop33" /></linearGradient><linearGradient
       id="swatch32"><stop
         style="stop-color:#cc2936;stop-opacity:1;"
         offset="0"
         id="stop32" /></linearGradient><linearGradient
       id="swatch30"><stop
         style="stop-color:#f6511d;stop-opacity:1;"
         offset="0"
         id="stop31" /></linearGradient><linearGradient
       id="swatch28"
       gradientTransform="matrix(0.26458333,0,0,0.1024601,-92.997967,172.05958)"><stop
         style="stop-color:#09bc8a;stop-opacity:1;"
         offset="0"
         id="stop28" /></linearGradient><linearGradient
       id="swatch27"><stop
         style="stop-color:#dc76e3;stop-opacity:1;"
         offset="0"
         id="stop27" /></linearGradient><linearGradient
       id="swatch26"><stop
         style="stop-color:#0081a7;stop-opacity:1;"
         offset="0"
         id="stop26" /></linearGradient></defs><path
     d="M 4.95018,0 C 4.495084,0.0686 4.039987,0.13712 3.584889,0.20567 2.894147,0.85628 2.203406,1.50688 1.512664,2.15749 L 1.907989,2.5771 C 2.609469,2.0716 3.224296,1.38101 3.96073,0.94367 3.759008,1.20258 2.260268,2.81527 2.195832,2.88253 2.327779,3.02257 2.459727,3.16262 2.591674,3.30266 3.282243,2.65188 3.972813,2.00111 4.663382,1.35033 4.758672,0.90015 4.854272,0.45004 4.95018,0 Z M 1.075998,1.95699 C 0.931487,2.06386 0.815095,2.20447 0.685841,2.32906 0.881119,2.53771 1.07661,2.74617 1.271847,2.95486 1.019214,3.1922 0.766441,3.4294 0.510653,3.66334 0.450583,3.62894 0.392344,3.50557 0.331602,3.53063 0.22255,3.63834 0.087041,3.72328 7e-6,3.84976 0.012147,3.91086 0.676092,4.87963 0.913796,4.63443 0.998586,4.55203 1.087001,4.47343 1.173668,4.393 1.134868,4.3275 1.046384,4.25768 1.038445,4.19446 1.288049,3.96334 1.532374,3.72631 1.788623,3.50251 1.983245,3.70839 2.177721,3.91441 2.37205,4.12056 2.501272,3.99968 2.646781,3.89309 2.756523,3.75366 2.208939,3.14393 1.647906,2.54354 1.075998,1.95699 Z"
     style="display:inline;fill:#000000;fill-opacity:1;stroke-width:0.999995"
     id="path17-2" /></svg>
