<?xml version="1.0" encoding="UTF-8" standalone="no"?>
<!-- Created with Inkscape (http://www.inkscape.org/) -->

<svg
   width="18.70932"
   height="17.665955"
   viewBox="0 0 4.9501742 4.6741171"
   version="1.1"
   id="svg1"
   xml:space="preserve"
   xmlns="http://www.w3.org/2000/svg"
   xmlns:svg="http://www.w3.org/2000/svg"><defs
     id="defs1"><linearGradient
       id="swatch37"><stop
         style="stop-color:#0a100d;stop-opacity:1;"
         offset="0"
         id="stop37" /></linearGradient><linearGradient
       id="swatch36"><stop
         style="stop-color:#c59a23;stop-opacity:1;"
         offset="0"
         id="stop36" /></linearGradient><linearGradient
       id="swatch35"><stop
         style="stop-color:#656839;stop-opacity:1;"
         offset="0"
         id="stop35" /></linearGradient><linearGradient
       id="swatch34"><stop
         style="stop-color:#ccc5b9;stop-opacity:1;"
         offset="0"
         id="stop34" /></linearGradient><linearGradient
       id="swatch33"><stop
         style="stop-color:#685f74;stop-opacity:1;"
         offset="0"
         id="stop33" /></linearGradient><linearGradient
       id="swatch32"><stop
         style="stop-color:#cc2936;stop-opacity:1;"
         offset="0"
         id="stop32" /></linearGradient><linearGradient
       id="swatch30"><stop
         style="stop-color:#f6511d;stop-opacity:1;"
         offset="0"
         id="stop31" /></linearGradient><linearGradient
       id="swatch28"
       gradientTransform="matrix(0.26458333,0,0,0.1024601,-92.997967,172.05958)"><stop
         style="stop-color:#09bc8a;stop-opacity:1;"
         offset="0"
         id="stop28" /></linearGradient><linearGradient
       id="swatch27"><stop
         style="stop-color:#dc76e3;stop-opacity:1;"
         offset="0"
         id="stop27" /></linearGradient><linearGradient
       id="swatch26"><stop
         style="stop-color:#0081a7;stop-opacity:1;"
         offset="0"
         id="stop26" /></linearGradient></defs><g
     id="layer2"
     style="display:inline"
     transform="translate(24.454376,-149.80452)"><g
       id="layer9"><path
         d="m -19.504196,149.80452 c -0.455096,0.0686 -0.910193,0.13712 -1.365291,0.20567 -0.690742,0.65061 -1.381483,1.30121 -2.072225,1.95182 l 0.395325,0.41961 c 0.70148,-0.5055 1.316307,-1.19609 2.052741,-1.63343 -0.201722,0.25891 -1.700462,1.8716 -1.764898,1.93886 0.131947,0.14004 0.263895,0.28009 0.395842,0.42013 0.690569,-0.65078 1.381139,-1.30155 2.071708,-1.95233 0.09529,-0.45018 0.19089,-0.90029 0.286798,-1.35033 z m -3.874182,1.95699 c -0.144511,0.10687 -0.260903,0.24748 -0.390157,0.37207 0.195278,0.20865 0.390769,0.41711 0.586006,0.6258 -0.252633,0.23734 -0.505406,0.47454 -0.761194,0.70848 -0.06007,-0.0344 -0.118309,-0.15777 -0.179051,-0.13271 -0.109052,0.10771 -0.244561,0.19265 -0.331595,0.31913 0.01214,0.0611 0.676085,1.02987 0.913789,0.78467 0.08479,-0.0824 0.173205,-0.161 0.259872,-0.24143 -0.0388,-0.0655 -0.127284,-0.13532 -0.135223,-0.19854 0.249604,-0.23112 0.493929,-0.46815 0.750178,-0.69195 0.194622,0.20588 0.389098,0.4119 0.583427,0.61805 0.129222,-0.12088 0.274731,-0.22747 0.384473,-0.3669 -0.547584,-0.60973 -1.108617,-1.21012 -1.680525,-1.79667 z"
         style="display:inline;fill:#000000;fill-opacity:1;stroke-width:0.999995"
         id="path17-2" /><path
         style="display:inline;fill:#000000;stroke-width:0.999995"
         d="m -19.814776,156.13314 c 0.100354,-0.0879 0.20026,-0.17639 0.300027,-0.26499 0.05613,0.0393 0.111624,0.13417 0.168194,0.1422 0.253489,-0.22978 0.502917,-0.46397 0.753146,-0.69728 -0.194475,-0.2092 -0.388874,-0.41847 -0.58375,-0.6273 0.129404,-0.12448 0.246282,-0.2646 0.39094,-0.37136 0.570387,0.58882 1.129646,1.18964 1.67529,1.80143 -0.10979,0.13933 -0.255595,0.24553 -0.38498,0.36616 -0.194022,-0.20653 -0.388039,-0.41307 -0.58205,-0.61961 -0.260535,0.22585 -0.508554,0.46569 -0.76219,0.6992 0.03846,0.0657 0.126877,0.13584 0.134727,0.19882 -0.119104,0.0995 -0.220491,0.22331 -0.351964,0.30513 -0.05855,-0.0137 -0.929496,-0.69934 -0.75739,-0.9324 z m 3.695044,-0.69547 c 0.174219,0.16452 0.332274,0.34561 0.498853,0.51793 -0.04068,0.0886 -0.07187,0.39737 -0.174988,0.1935 -0.119999,-0.23238 -0.25043,-0.46688 -0.323865,-0.71143 z m -0.322217,0.3916 c -0.0028,-0.11748 -0.03833,-0.48241 0.05261,-0.18432 0.04182,0.11129 0.08123,0.22347 0.121789,0.33522 -0.05954,0.10939 -0.187684,0.22779 -0.165696,0.01 -0.0035,-0.0536 -0.0058,-0.10727 -0.0087,-0.1609 z m -1.29387,-0.66576 c 0.143015,-0.14303 0.286039,-0.28605 0.42907,-0.42906 0.258756,0.0862 0.51751,0.17246 0.77626,0.2587 -0.219917,0.20323 -0.427602,0.4205 -0.655537,0.61434 -0.226854,-0.0156 -0.384702,-0.2686 -0.549793,-0.44398 z m 1.93545,0.0893 c -0.0709,-0.0525 -0.348025,-0.2336 -0.09422,-0.14359 0.168428,0.0497 0.333996,0.10844 0.500335,0.16462 -0.129543,0.11696 -0.286918,0.1278 -0.4061,-0.0211 z m -2.563,-0.75995 c 0.240671,-0.22297 0.474786,-0.45343 0.72569,-0.66501 0.200782,0.0747 0.402644,0.14664 0.6021,0.22484 -0.07861,0.26164 -0.326644,0.45712 -0.503293,0.66448 -0.341243,0.42501 -0.567079,0.0508 -0.824497,-0.22431 z m 1.54973,0.24689 c -0.235759,-0.0412 -0.380403,-0.20926 -0.141658,-0.38483 0.239809,-0.27525 0.551438,-0.47236 0.816658,-0.72006 -0.111474,-0.27632 -0.328548,0.0658 -0.473865,0.14157 -0.06824,0.0536 -0.13647,0.10721 -0.204705,0.16082 -0.234716,-0.10875 -0.473491,-0.20936 -0.70316,-0.32852 0.436644,-0.39726 0.916413,-0.74656 1.378815,-1.11378 0.06082,-0.067 0.134244,-0.0923 0.222501,-0.0685 0.347101,0.0268 0.694943,0.0465 1.041124,0.0834 0.0058,0.32769 -0.170599,1.17661 -0.176101,1.19109 -0.487048,0.38026 -0.960927,0.77843 -1.466189,1.13452 -0.09665,0.0204 -0.199985,-0.0684 -0.293418,-0.0957 z m -1.4802,-1.02057 c -0.160286,0.004 -0.4116,-0.0605 -0.163905,-0.1801 0.06914,-0.0459 0.151009,0.0579 0.225578,0.0759 0.117591,0.0588 0.408289,0.19353 0.112707,0.12727 -0.07204,-0.01 -0.17438,-0.0228 -0.17438,-0.0231 z m -0.22084,-0.7489 c 0.02072,-0.1055 0.0011,-0.44197 0.134708,-0.22959 0.176858,0.22489 0.359783,0.448 0.50702,0.69355 -0.221019,-0.14376 -0.429708,-0.3069 -0.641728,-0.46396 z m 0.84617,0.23532 c -0.07695,-0.13142 -0.149732,-0.26522 -0.22402,-0.39815 0.05109,-0.11103 0.156832,-0.22898 0.166278,-0.0205 -0.002,0.0595 0.151773,0.51629 0.05774,0.4187 z"
         id="path59-22-8-2" /></g></g></svg>
