<?xml version="1.0" encoding="UTF-8" standalone="no"?>
<!-- Created with Inkscape (http://www.inkscape.org/) -->

<svg
   width="15.090988"
   height="15.123412"
   viewBox="0 0 3.9928239 4.0014028"
   version="1.1"
   id="svg1"
   xml:space="preserve"
   xmlns="http://www.w3.org/2000/svg"
   xmlns:svg="http://www.w3.org/2000/svg"><defs
     id="defs1"><linearGradient
       id="swatch37"><stop
         style="stop-color:#0a100d;stop-opacity:1;"
         offset="0"
         id="stop37" /></linearGradient><linearGradient
       id="swatch36"><stop
         style="stop-color:#c59a23;stop-opacity:1;"
         offset="0"
         id="stop36" /></linearGradient><linearGradient
       id="swatch35"><stop
         style="stop-color:#656839;stop-opacity:1;"
         offset="0"
         id="stop35" /></linearGradient><linearGradient
       id="swatch34"><stop
         style="stop-color:#ccc5b9;stop-opacity:1;"
         offset="0"
         id="stop34" /></linearGradient><linearGradient
       id="swatch33"><stop
         style="stop-color:#685f74;stop-opacity:1;"
         offset="0"
         id="stop33" /></linearGradient><linearGradient
       id="swatch32"><stop
         style="stop-color:#cc2936;stop-opacity:1;"
         offset="0"
         id="stop32" /></linearGradient><linearGradient
       id="swatch30"><stop
         style="stop-color:#f6511d;stop-opacity:1;"
         offset="0"
         id="stop31" /></linearGradient><linearGradient
       id="swatch28"
       gradientTransform="matrix(0.26458333,0,0,0.1024601,-92.997967,172.05958)"><stop
         style="stop-color:#09bc8a;stop-opacity:1;"
         offset="0"
         id="stop28" /></linearGradient><linearGradient
       id="swatch27"><stop
         style="stop-color:#dc76e3;stop-opacity:1;"
         offset="0"
         id="stop27" /></linearGradient><linearGradient
       id="swatch26"><stop
         style="stop-color:#0081a7;stop-opacity:1;"
         offset="0"
         id="stop26" /></linearGradient></defs><g
     id="layer2"
     style="display:inline"
     transform="translate(26.570037,-141.14033)"><g
       id="layer9"><path
         style="display:inline;fill:#000000;fill-opacity:1;stroke-width:1"
         d="m -26.360072,145.13648 c -0.12693,-0.0181 -0.21669,-0.1275 -0.209569,-0.2554 0.003,-0.0599 0.620677,-2.29904 0.649496,-2.3558 0.0671,-0.13216 0.10049,-0.13913 0.666874,-0.1392 l 0.4289,-7e-5 v -0.0298 c 0,-0.0277 -0.002,-0.031 -0.0365,-0.0476 -0.57052,-0.27717 -0.35147,-1.16828 0.28719,-1.16828 0.638653,0 0.857713,0.89111 0.287193,1.16828 -0.0339,0.0165 -0.0365,0.0199 -0.0365,0.0476 v 0.0298 l 0.4289,7e-5 c 0.56279,7e-5 0.59466,0.006 0.66158,0.13061 0.032,0.0592 0.65088,2.2943 0.65479,2.36439 0.006,0.10382 -0.0415,0.18387 -0.13685,0.23171 l -0.0534,0.0268 c -1.197316,-0.005 -2.394817,0.01 -3.592082,-0.004 z m 1.855001,-3.26745 c 0.0773,-0.0471 0.0773,-0.17232 0,-0.21944 -0.0862,-0.0525 -0.19389,0.008 -0.19389,0.10972 0,0.10138 0.10766,0.16229 0.19389,0.10972 z"
         id="path25-4-8-6" /></g></g></svg>
