<?xml version="1.0" encoding="UTF-8" standalone="no"?>
<!-- Created with Inkscape (http://www.inkscape.org/) -->

<svg
   width="10"
   height="10"
   viewBox="0 0 24 24"
   version="1.1"
   id="svg1"
   xml:space="preserve"
   sodipodi:docname="weight.svg"
   inkscape:version="1.4 (86a8ad7, 2024-10-11)"
   xmlns:inkscape="http://www.inkscape.org/namespaces/inkscape"
   xmlns:sodipodi="http://sodipodi.sourceforge.net/DTD/sodipodi-0.dtd"
   xmlns="http://www.w3.org/2000/svg"
   xmlns:svg="http://www.w3.org/2000/svg"><sodipodi:namedview
     id="namedview1"
     pagecolor="#ffffff"
     bordercolor="#000000"
     borderopacity="0.25"
     inkscape:showpageshadow="2"
     inkscape:pageopacity="0.0"
     inkscape:pagecheckerboard="0"
     inkscape:deskcolor="#d1d1d1"
     inkscape:zoom="39.309912"
     inkscape:cx="5.6219917"
     inkscape:cy="4.3627673"
     inkscape:window-width="2560"
     inkscape:window-height="1369"
     inkscape:window-x="-8"
     inkscape:window-y="-8"
     inkscape:window-maximized="1"
     inkscape:current-layer="svg1" /><defs
     id="defs1"><linearGradient
       id="swatch37"><stop
         style="stop-color:#0a100d;stop-opacity:1;"
         offset="0"
         id="stop37" /></linearGradient><linearGradient
       id="swatch36"><stop
         style="stop-color:#c59a23;stop-opacity:1;"
         offset="0"
         id="stop36" /></linearGradient><linearGradient
       id="swatch35"><stop
         style="stop-color:#656839;stop-opacity:1;"
         offset="0"
         id="stop35" /></linearGradient><linearGradient
       id="swatch34"><stop
         style="stop-color:#ccc5b9;stop-opacity:1;"
         offset="0"
         id="stop34" /></linearGradient><linearGradient
       id="swatch33"><stop
         style="stop-color:#685f74;stop-opacity:1;"
         offset="0"
         id="stop33" /></linearGradient><linearGradient
       id="swatch32"><stop
         style="stop-color:#cc2936;stop-opacity:1;"
         offset="0"
         id="stop32" /></linearGradient><linearGradient
       id="swatch30"><stop
         style="stop-color:#f6511d;stop-opacity:1;"
         offset="0"
         id="stop31" /></linearGradient><linearGradient
       id="swatch28"
       gradientTransform="matrix(0.26458333,0,0,0.1024601,-92.997967,172.05958)"><stop
         style="stop-color:#09bc8a;stop-opacity:1;"
         offset="0"
         id="stop28" /></linearGradient><linearGradient
       id="swatch27"><stop
         style="stop-color:#dc76e3;stop-opacity:1;"
         offset="0"
         id="stop27" /></linearGradient><linearGradient
       id="swatch26"><stop
         style="stop-color:#0081a7;stop-opacity:1;"
         offset="0"
         id="stop26" /></linearGradient></defs><path
     style="display:inline;stroke-width:0.0289142;fill:#000000;fill-opacity:1"
     d="m -10.983363,60.473533 c -0.05289,-0.0075 -0.09029,-0.05313 -0.08732,-0.106416 0.0013,-0.02496 0.258616,-0.957934 0.270624,-0.981584 0.02796,-0.05507 0.04187,-0.05797 0.277864,-0.058 l 0.178708,-2.9e-5 v -0.01242 c 0,-0.01154 -8.33e-4,-0.01292 -0.01521,-0.01983 -0.237717,-0.115487 -0.146446,-0.486783 0.119662,-0.486783 0.2661057,0 0.3573807,0.371296 0.119664,0.486783 -0.01412,0.0069 -0.01521,0.0083 -0.01521,0.01983 v 0.01242 l 0.178708,2.9e-5 c 0.2344958,3e-5 0.247775,0.0025 0.2756583,0.05442 0.013333,0.02467 0.2712,0.955959 0.2728292,0.985163 0.0025,0.04326 -0.017292,0.07661 -0.057021,0.09654 l -0.02225,0.01117 c -0.4988817,-0.0021 -0.9978405,0.0042 -1.4967005,-0.0017 z m 0.772917,-1.361437 c 0.03221,-0.01962 0.03221,-0.0718 0,-0.09143 -0.03592,-0.02188 -0.08079,0.0033 -0.08079,0.04572 0,0.04224 0.04486,0.06762 0.08079,0.04572 z"
     id="path25-4-8-6"
     transform="matrix(14.425893,0,0,14.394944,159.70688,-846.54466)" /></svg>
