<?xml version="1.0" encoding="UTF-8" standalone="no"?>
<!-- Created with Inkscape (http://www.inkscape.org/) -->

<svg
   width="37.795258"
   height="37.804321"
   viewBox="0 0 9.999995 10.002393"
   version="1.1"
   id="svg1"
   xml:space="preserve"
   xmlns="http://www.w3.org/2000/svg"
   xmlns:svg="http://www.w3.org/2000/svg"><defs
     id="defs1"><linearGradient
       id="swatch37"><stop
         style="stop-color:#0a100d;stop-opacity:1;"
         offset="0"
         id="stop37" /></linearGradient><linearGradient
       id="swatch36"><stop
         style="stop-color:#c59a23;stop-opacity:1;"
         offset="0"
         id="stop36" /></linearGradient><linearGradient
       id="swatch35"><stop
         style="stop-color:#656839;stop-opacity:1;"
         offset="0"
         id="stop35" /></linearGradient><linearGradient
       id="swatch34"><stop
         style="stop-color:#ccc5b9;stop-opacity:1;"
         offset="0"
         id="stop34" /></linearGradient><linearGradient
       id="swatch33"><stop
         style="stop-color:#685f74;stop-opacity:1;"
         offset="0"
         id="stop33" /></linearGradient><linearGradient
       id="swatch32"><stop
         style="stop-color:#cc2936;stop-opacity:1;"
         offset="0"
         id="stop32" /></linearGradient><linearGradient
       id="swatch30"><stop
         style="stop-color:#f6511d;stop-opacity:1;"
         offset="0"
         id="stop31" /></linearGradient><linearGradient
       id="swatch28"
       gradientTransform="matrix(0.26458333,0,0,0.1024601,-92.997967,172.05958)"><stop
         style="stop-color:#09bc8a;stop-opacity:1;"
         offset="0"
         id="stop28" /></linearGradient><linearGradient
       id="swatch27"><stop
         style="stop-color:#dc76e3;stop-opacity:1;"
         offset="0"
         id="stop27" /></linearGradient><linearGradient
       id="swatch26"><stop
         style="stop-color:#0081a7;stop-opacity:1;"
         offset="0"
         id="stop26" /></linearGradient></defs><g
     id="layer2"
     style="display:inline"
     transform="translate(-115.99548,-324.23759)"><g
       id="layer9"><path
         id="path38-1"
         style="display:inline;fill:#000000;fill-opacity:0.15;stroke-width:1"
         d="m 122.65371,324.23805 c -0.066,-0.0152 -0.53286,0.31736 -1.97662,1.35186 -1.25434,0.89877 -1.76983,1.31461 -1.78852,1.4428 -0.0213,0.1456 0.21924,0.006 1.25522,-0.7307 1.55702,-1.10708 1.53994,-1.11881 0.50643,0.33848 -0.46207,0.65151 -0.8686,1.23096 -0.9033,1.28726 -0.042,0.0681 -0.0109,0.10232 0.093,0.10232 0.13589,0 1.16686,-1.36551 2.7094,-3.58893 0.0815,-0.11752 0.13437,-0.19619 0.10438,-0.20309 z m -1.62575,1.59732 c -0.0763,-0.008 -0.42541,0.25229 -1.09244,0.73122 -1.7945,1.28846 -1.88598,1.40453 -1.4552,1.84898 0.41104,0.42408 0.56839,0.2984 1.82056,-1.45107 0.54955,-0.76779 0.81356,-1.12029 0.72708,-1.12913 z m 0.88523,1.73478 c -0.0533,4.7e-4 -0.10832,0.003 -0.16536,0.007 l -0.22067,0.016 0.22376,0.19948 c 0.5799,0.51688 0.61153,1.32931 0.0744,1.91202 -0.21347,0.23159 -0.32951,0.28625 -0.93793,0.44287 -1.1382,0.29301 -1.54764,0.6795 -1.55804,1.47019 -0.005,0.35305 0.0323,0.46314 0.10904,0.32402 0.26333,-0.477 1.0861,-0.72668 1.6092,-0.48731 0.48055,0.2199 0.67956,0.50109 0.85938,1.21439 0.22188,0.88013 0.49395,1.29853 0.96067,1.47795 0.20029,0.077 0.8971,0.12761 0.8971,0.0651 0,-0.0121 -0.0675,-0.0892 -0.14986,-0.17156 -0.42324,-0.42324 -0.45316,-1.31918 -0.0646,-1.94097 0.14026,-0.22443 0.30097,-0.30849 0.85421,-0.44597 1.14361,-0.2842 1.54847,-0.65564 1.58337,-1.45469 0.0195,-0.44627 0.0205,-0.44546 -0.23668,-0.18138 -0.87267,0.89594 -1.96652,0.47107 -2.34043,-0.90899 -0.30664,-1.13176 -0.69782,-1.54498 -1.49758,-1.53789 z m -3.70985,0.72037 -0.50436,0.52916 c -0.42727,0.44808 -0.57388,0.54726 -0.9555,0.64596 -0.75292,0.19465 -0.9721,0.71927 -0.49816,1.19321 0.47507,0.47508 0.95812,0.2416 1.2025,-0.58136 0.1041,-0.35052 0.23392,-0.54078 0.62684,-0.91933 l 0.49557,-0.47749 -0.18345,-0.19533 z m -1.46864,1.45107 c 0.0292,-3e-5 0.0592,0.002 0.0904,0.006 0.33554,0.042 0.43541,0.57483 0.14572,0.77774 -0.24073,0.16863 -0.35828,0.16107 -0.55552,-0.0362 -0.32226,-0.32225 -0.11862,-0.74683 0.31936,-0.74724 z m 5.96604,0.81287 c 0.26045,0.0228 0.44389,0.34056 0.19947,0.58498 -0.23942,0.23942 -0.58136,0.0948 -0.58136,-0.24598 0,-0.12806 0.0241,-0.1828 0.10904,-0.2496 0.0909,-0.0715 0.18602,-0.097 0.27285,-0.0894 z" /></g></g></svg>
